<?xml version="1.0" standalone="no"?>
<!DOCTYPE svg PUBLIC "-//W3C//DTD SVG 1.1//EN" "http://www.w3.org/Graphics/SVG/1.1/DTD/svg11.dtd" >
<svg>
<metadata>
Created by FontForge 20120731 at Mon May 30 00:44:26 2016
 By www
Copyright (c) 2014 by S-Core Co., Ltd.. All rights reserved.
</metadata>
<defs>
<font id="CoreSansA65BoldW01-Regular" horiz-adv-x="628" >
  <font-face 
    font-family="CoreSansA65BoldW01-Regular"
    font-weight="400"
    font-stretch="normal"
    units-per-em="1000"
    panose-1="2 11 8 3 3 3 2 2 2 4"
    ascent="800"
    descent="-200"
    x-height="518"
    cap-height="700"
    bbox="-52 -238 1121 954"
    underline-thickness="50"
    underline-position="-125"
    unicode-range="U+0008-2122"
  />
<missing-glyph horiz-adv-x="500" 
d="M70 0v750h360v-750h-360zM355 65v620h-210v-620h210z" />
    <glyph glyph-name=".notdef" horiz-adv-x="500" 
d="M70 0v750h360v-750h-360zM355 65v620h-210v-620h210z" />
    <glyph glyph-name=".null" horiz-adv-x="0" 
 />
    <glyph glyph-name="nonmarkingreturn" horiz-adv-x="333" 
 />
    <glyph glyph-name="uni0008" horiz-adv-x="0" 
 />
    <glyph glyph-name="uni0008" horiz-adv-x="0" 
 />
    <glyph glyph-name="uni0008" horiz-adv-x="0" 
 />
    <glyph glyph-name="uni0009" unicode="&#x9;" horiz-adv-x="300" 
 />
    <glyph glyph-name="uni0009" unicode="&#xd;" horiz-adv-x="300" 
 />
    <glyph glyph-name="space" unicode=" " horiz-adv-x="300" 
 />
    <glyph glyph-name="exclam" unicode="!" horiz-adv-x="314" 
d="M239 700v-170l-23 -335h-118l-23 335v170h164zM157 -12q-34 0 -57.5 23.5t-23.5 58.5t23.5 58.5t57.5 23.5t57.5 -23.5t23.5 -58.5t-23.5 -58.5t-57.5 -23.5z" />
    <glyph glyph-name="quotedbl" unicode="&#x22;" horiz-adv-x="538" 
d="M93 700h140v-34l-28 -249h-97zM306 700h139v-34l-28 -249h-97z" />
    <glyph glyph-name="numbersign" unicode="#" horiz-adv-x="735" 
d="M495 700h136l-27 -156h99v-111h-118l-28 -164h104v-111h-123l-26 -158h-136l26 158h-135l-27 -158h-136l27 158h-99v111h118l28 164h-104v111h123l26 156h136l-26 -156h135zM314 433l-28 -164h135l28 164h-135z" />
    <glyph glyph-name="dollar" unicode="$" horiz-adv-x="623" 
d="M287 800h72v-93q59 -9 109.5 -36t88.5 -72l-107 -79q-36 42 -91 58v-160q57 -18 99.5 -38.5t70.5 -46t41.5 -58.5t13.5 -77t-15.5 -80.5t-45 -63.5t-71 -43.5t-93.5 -20.5v-88h-72v88q-78 6 -143 37t-113 86l114 84q28 -31 63.5 -52t78.5 -27v172q-121 40 -173.5 94.5
t-52.5 129.5q0 42 15 77.5t43.5 61.5t71 41.5t96.5 17.5v88zM423 187q0 26 -13.5 45.5t-50.5 33.5v-146q64 16 64 67zM222 520q0 -26 15 -44t50 -32v138q-33 -5 -49 -21.5t-16 -40.5z" />
    <glyph glyph-name="percent" unicode="%" horiz-adv-x="904" 
d="M245 -15l-73 50l487 680l73 -50zM410 528q0 -80 -45 -129.5t-123 -49.5t-123 49.5t-45 129.5t45 129.5t123 49.5t123 -49.5t45 -129.5zM188 528q0 -80 54 -80t54 80t-54 80t-54 -80zM830 172q0 -80 -45 -129.5t-123 -49.5t-123 49.5t-45 129.5t45 129.5t123 49.5
t123 -49.5t45 -129.5zM608 172q0 -80 54 -80t54 80t-54 80t-54 -80z" />
    <glyph glyph-name="ampersand" unicode="&#x26;" horiz-adv-x="692" 
d="M498 0l-37 42q-36 -25 -80.5 -39.5t-98.5 -14.5q-52 0 -95 14t-74.5 39t-49 60t-17.5 77q0 63 32 107.5t98 80.5q-35 43 -54 82t-19 87q0 40 14 72.5t40.5 55.5t63.5 36t84 13q42 0 78 -12.5t63 -35.5t42.5 -56t15.5 -75q0 -61 -39 -108.5t-98 -78.5l107 -126
q19 26 35.5 55.5t27.5 60.5l119 -55q-18 -44 -43.5 -84.5t-54.5 -71.5l110 -125h-170zM193 187q0 -34 26 -57.5t81 -23.5q21 0 41 7.5t39 19.5l-127 146q-33 -23 -46.5 -45t-13.5 -47zM370 534q0 29 -17.5 48t-46.5 19q-32 0 -48.5 -20t-16.5 -47v-5q0 -23 10 -42.5
t27 -39.5l16 -19q30 19 53 45t23 61z" />
    <glyph glyph-name="quotesingle" unicode="'" horiz-adv-x="316" 
d="M88 700h140v-34l-28 -249h-97z" />
    <glyph glyph-name="parenleft" unicode="(" horiz-adv-x="392" 
d="M92 310q0 126 41.5 239.5t118.5 207.5l98 -48q-59 -88 -91 -187.5t-32 -211.5t32 -211.5t91 -187.5l-98 -48q-77 94 -118.5 207.5t-41.5 239.5z" />
    <glyph glyph-name="parenright" unicode=")" horiz-adv-x="392" 
d="M300 310q0 -126 -41.5 -239.5t-118.5 -207.5l-98 48q59 88 91 187.5t32 211.5t-32 211.5t-91 187.5l98 48q77 -94 118.5 -207.5t41.5 -239.5z" />
    <glyph glyph-name="asterisk" unicode="*" horiz-adv-x="555" 
d="M369 332l131 -60l-59 -104l-118 84l14 -143h-119l14 143l-117 -84l-60 104l131 60l-131 59l60 104l117 -84l-14 144h119l-14 -144l118 84l59 -104z" />
    <glyph glyph-name="plus" unicode="+" horiz-adv-x="616" 
d="M243 278h-188v107h188v197h130v-197h188v-107h-188v-198h-130v198z" />
    <glyph glyph-name="comma" unicode="," horiz-adv-x="314" 
d="M120 162l126 -42l-113 -279l-96 30z" />
    <glyph glyph-name="hyphen" unicode="-" horiz-adv-x="404" 
d="M55 273v117h294v-117h-294z" />
    <glyph glyph-name="period" unicode="." horiz-adv-x="314" 
d="M76 70q0 35 23.5 58.5t57.5 23.5t57.5 -23.5t23.5 -58.5t-23.5 -58.5t-57.5 -23.5t-57.5 23.5t-23.5 58.5z" />
    <glyph glyph-name="slash" unicode="/" horiz-adv-x="535" 
d="M110 -132l-108 64l422 835l109 -63z" />
    <glyph glyph-name="zero" unicode="0" 
d="M584 350q0 -80 -16.5 -146.5t-50.5 -114.5t-84.5 -74.5t-118.5 -26.5t-118.5 26.5t-84.5 74.5t-50.5 114.5t-16.5 146.5q0 79 16.5 145.5t50.5 114.5t84.5 75t118.5 27t118.5 -27t84.5 -75t50.5 -114.5t16.5 -145.5zM423 350q0 118 -27.5 173.5t-81.5 55.5t-81.5 -55.5
t-27.5 -173.5t27.5 -173.5t81.5 -55.5t81.5 55.5t27.5 173.5z" />
    <glyph glyph-name="one" unicode="1" 
d="M280 524l-115 -83l-87 96l220 163h137v-700h-155v524z" />
    <glyph glyph-name="two" unicode="2" 
d="M309 712q55 0 99.5 -14.5t75.5 -42t48 -67.5t17 -91q0 -50 -21.5 -99.5t-57 -96.5t-80.5 -90t-92 -80h261v-131h-482v117q53 43 108 91t100 96.5t73.5 96.5t28.5 90q0 38 -22.5 60.5t-62.5 22.5q-44 0 -77.5 -18t-61.5 -51l-109 76q44 60 110.5 95.5t144.5 35.5z" />
    <glyph glyph-name="three" unicode="3" 
d="M305 712q52 0 94.5 -13t73 -37t47.5 -58.5t17 -77.5q0 -62 -32.5 -103t-77.5 -58q63 -20 98.5 -62.5t35.5 -108.5q0 -44 -17.5 -81.5t-50.5 -65.5t-81.5 -43.5t-110.5 -15.5q-85 0 -152 30.5t-112 83.5l102 83q31 -35 68.5 -52.5t78.5 -17.5q52 0 82.5 23t30.5 65
q0 52 -37.5 75t-94.5 23h-71v121h69q51 0 83 22.5t32 63.5q0 35 -23.5 55.5t-67.5 20.5q-37 0 -71 -16.5t-60 -45.5l-101 81q48 54 112 81.5t136 27.5z" />
    <glyph glyph-name="four" unicode="4" 
d="M31 131v115l327 454h145v-448h88v-121h-88v-131h-151v131h-321zM190 252h162v224z" />
    <glyph glyph-name="five" unicode="5" 
d="M105 329v371h424v-126h-272v-135q18 5 41 7.5t43 2.5q46 0 86.5 -15.5t71.5 -45t49 -72.5t18 -97q0 -49 -17.5 -91.5t-50.5 -73.5t-81 -48.5t-110 -17.5q-81 0 -145.5 30t-107.5 86l104 81q30 -36 64.5 -52.5t72.5 -16.5q49 0 79.5 29t30.5 74q0 52 -35.5 80t-94.5 28
q-33 0 -67 -6t-63 -17z" />
    <glyph glyph-name="six" unicode="6" 
d="M340 584q-24 0 -45 -9t-37.5 -29.5t-27 -53.5t-13.5 -82q27 23 63 37t80 14q49 0 90.5 -17t71 -47.5t46 -74.5t16.5 -98q0 -53 -18 -96.5t-51.5 -74.5t-80 -48t-103.5 -17q-63 0 -113.5 20t-86 62t-54.5 107t-19 154q0 98 19 169.5t54 118.5t86 70t114 23
q71 0 128.5 -29.5t95.5 -86.5l-108 -68q-20 28 -46 42t-61 14zM323 335q-60 0 -108 -45q2 -50 11 -83t23.5 -53.5t34.5 -29t43 -8.5q49 0 75 29t26 81q0 51 -26.5 80t-78.5 29z" />
    <glyph glyph-name="seven" unicode="7" 
d="M301 0h-170l254 569h-322v131h492v-128z" />
    <glyph glyph-name="eight" unicode="8" 
d="M73 518q0 43 16.5 78.5t47.5 61t75 40t99 14.5q56 0 101 -14.5t76.5 -40t48 -60t16.5 -74.5q0 -48 -22.5 -89t-64.5 -67q61 -33 88.5 -76t27.5 -97q0 -46 -19 -83.5t-54 -64.5t-84.5 -42t-111.5 -15q-61 0 -110.5 14.5t-85 41.5t-54.5 65t-19 86q0 55 27 100.5t81 74.5
q-79 63 -79 147zM204 200q0 -42 31 -66t80 -24q48 0 78 20.5t30 55.5q0 18 -7 33t-25 29t-49 28.5t-78 32.5q-29 -20 -44.5 -48.5t-15.5 -60.5zM401 509q0 36 -23 58.5t-64 22.5t-63.5 -20t-22.5 -51q0 -14 6 -26t20.5 -24t38.5 -24t59 -26q22 15 35.5 37t13.5 53z" />
    <glyph glyph-name="nine" unicode="9" 
d="M277 116q25 0 47.5 8t40.5 28t30 53t16 83q-27 -22 -63 -35.5t-79 -13.5q-50 0 -91 16.5t-70.5 47.5t-46 74.5t-16.5 97.5q0 53 18 97t51.5 75t80.5 48t104 17q62 0 112 -20t85.5 -62t55 -106t19.5 -151q0 -100 -21 -172.5t-59.5 -120t-92 -70t-118.5 -22.5
q-63 0 -116.5 21t-94.5 61l94 91q49 -45 114 -45zM306 365q60 0 107 44q-2 51 -10.5 84.5t-23.5 53.5t-34.5 28.5t-42.5 8.5q-49 0 -75 -29t-26 -81q0 -51 26.5 -80t78.5 -29z" />
    <glyph glyph-name="colon" unicode=":" horiz-adv-x="314" 
d="M76 70q0 35 23.5 58.5t57.5 23.5t57.5 -23.5t23.5 -58.5t-23.5 -58.5t-57.5 -23.5t-57.5 23.5t-23.5 58.5zM76 447q0 35 23.5 58.5t57.5 23.5t57.5 -23.5t23.5 -58.5t-23.5 -58.5t-57.5 -23.5t-57.5 23.5t-23.5 58.5z" />
    <glyph glyph-name="semicolon" unicode=";" horiz-adv-x="314" 
d="M76 447q0 35 23.5 58.5t57.5 23.5t57.5 -23.5t23.5 -58.5t-23.5 -58.5t-57.5 -23.5t-57.5 23.5t-23.5 58.5zM104 162l126 -42l-113 -279l-96 30z" />
    <glyph glyph-name="less" unicode="&#x3c;" horiz-adv-x="616" 
d="M99 379l359 223l59 -103l-273 -168l273 -168l-59 -103l-359 223v96z" />
    <glyph glyph-name="equal" unicode="=" horiz-adv-x="616" 
d="M55 395v107h506v-107h-506zM55 161v107h506v-107h-506z" />
    <glyph glyph-name="greater" unicode="&#x3e;" horiz-adv-x="616" 
d="M517 283l-359 -223l-59 103l273 168l-273 168l59 103l359 -223v-96z" />
    <glyph glyph-name="question" unicode="?" horiz-adv-x="560" 
d="M273 712q51 0 92 -12.5t70.5 -36.5t45 -58t15.5 -77q0 -59 -27.5 -104.5t-87.5 -87.5q-16 -11 -26.5 -21.5t-16.5 -22t-8.5 -25.5t-2.5 -32v-40h-158v54q0 56 21.5 96.5t74.5 75.5q39 26 54.5 48.5t15.5 48.5q0 61 -77 61q-32 0 -62 -16t-51 -41l-104 83q42 49 100.5 78
t131.5 29zM248 -12q-34 0 -57.5 23.5t-23.5 58.5t23.5 58.5t57.5 23.5t57.5 -23.5t23.5 -58.5t-23.5 -58.5t-57.5 -23.5z" />
    <glyph glyph-name="at" unicode="@" horiz-adv-x="971" 
d="M253 271q0 49 12.5 90t36.5 70.5t59.5 46t82.5 16.5q34 0 66.5 -13t58.5 -39v40h130v-281q0 -66 51 -66q42 0 59.5 42.5t17.5 115.5q0 76 -26 140t-72 110.5t-108 73t-135 26.5q-71 0 -133.5 -26.5t-109 -74.5t-73 -116t-26.5 -152q0 -83 26.5 -151t72.5 -116.5
t108.5 -75t134.5 -26.5q61 0 119 19t102 55l42 -58q-52 -41 -121 -63t-142 -22q-95 0 -172.5 34t-132.5 93.5t-85 139t-30 171.5q0 91 30 171t85 139.5t132.5 93.5t172.5 34q96 0 173.5 -33.5t132 -90.5t84 -133.5t29.5 -162.5q0 -52 -11.5 -96t-34.5 -76t-58.5 -50
t-83.5 -18q-96 0 -133 63q-26 -32 -64 -49.5t-76 -17.5q-47 0 -82.5 16.5t-59.5 45.5t-36.5 70t-12.5 91zM475 143q52 0 94 45v165q-20 22 -44 34t-50 12q-27 0 -44.5 -9t-28 -25.5t-15 -40.5t-4.5 -53q0 -59 19.5 -93.5t72.5 -34.5z" />
    <glyph glyph-name="A" unicode="A" horiz-adv-x="722" 
d="M704 0h-170l-46 144h-255l-45 -144h-170l244 700h198zM273 270h176l-88 280z" />
    <glyph glyph-name="B" unicode="B" horiz-adv-x="656" 
d="M74 700h261q63 0 110 -14t77.5 -39t46 -60t15.5 -78q0 -48 -25 -87t-74 -54q64 -14 99 -57.5t35 -104.5q0 -46 -15.5 -84t-48 -65t-83 -42t-121.5 -15h-277v700zM459 211q0 90 -121 90h-107v-180h107q121 0 121 90zM433 500q0 42 -27 60.5t-81 18.5h-94v-161h94
q108 0 108 82z" />
    <glyph glyph-name="C" unicode="C" horiz-adv-x="708" 
d="M41 350q0 82 24.5 149t69.5 114t107.5 73t139.5 26q100 0 176.5 -42.5t120.5 -119.5l-132 -65q-28 46 -67.5 70t-91.5 24q-39 0 -73 -14.5t-59 -43.5t-39.5 -72t-14.5 -99t14.5 -99t39.5 -72t59 -43.5t73 -14.5q52 0 91.5 24t67.5 70l132 -65q-44 -77 -120.5 -119.5
t-176.5 -42.5q-77 0 -139.5 26t-107.5 73t-69.5 114t-24.5 149z" />
    <glyph glyph-name="D" unicode="D" horiz-adv-x="713" 
d="M233 131h91q84 0 135 54.5t51 164.5t-51 164.5t-135 54.5h-91v-438zM671 350q0 -78 -24 -142.5t-68 -110.5t-107 -71.5t-142 -25.5h-256v700h256q79 0 142 -25.5t107 -72t68 -110.5t24 -142z" />
    <glyph glyph-name="E" unicode="E" horiz-adv-x="592" 
d="M74 700h468v-127h-309v-150h274v-127h-274v-169h318v-127h-477v700z" />
    <glyph glyph-name="F" unicode="F" horiz-adv-x="561" 
d="M74 700h468v-127h-309v-169h274v-127h-274v-277h-159v700z" />
    <glyph glyph-name="G" unicode="G" horiz-adv-x="735" 
d="M41 350q0 82 25 149t69.5 114t106 73t135.5 26q103 0 179 -41.5t122 -119.5l-133 -65q-26 45 -65.5 69t-96.5 24q-36 0 -69 -14.5t-58 -43.5t-39.5 -72t-14.5 -99t15 -99t41 -72t61 -43.5t75 -14.5q43 0 78.5 14t55.5 40v96h-141v115h293v-270q-48 -60 -121 -94t-167 -34
q-77 0 -141.5 25.5t-111 73t-72.5 114t-26 149.5z" />
    <glyph glyph-name="H" unicode="H" horiz-adv-x="735" 
d="M74 700h159v-266h269v266h159v-700h-159v303h-269v-303h-159v700z" />
    <glyph glyph-name="I" unicode="I" horiz-adv-x="316" 
d="M238 700v-700h-160v700h160z" />
    <glyph glyph-name="J" unicode="J" horiz-adv-x="616" 
d="M277 121q52 0 79 34t27 91v454h159v-448q0 -60 -17 -109t-50 -83.5t-81.5 -53t-111.5 -18.5q-87 0 -152.5 38t-102.5 108l128 70q20 -39 50 -61t72 -22z" />
    <glyph glyph-name="K" unicode="K" horiz-adv-x="675" 
d="M233 384l226 316h176l-220 -288l251 -412h-180l-165 286l-88 -114v-172h-159v700h159v-316z" />
    <glyph glyph-name="L" unicode="L" horiz-adv-x="562" 
d="M74 700h159v-569h311v-131h-470v700z" />
    <glyph glyph-name="M" unicode="M" horiz-adv-x="884" 
d="M393 127l-165 311v-438h-154v700h159l209 -401l209 401h159v-700h-154v438l-165 -311h-98z" />
    <glyph glyph-name="N" unicode="N" horiz-adv-x="733" 
d="M74 700h155l276 -448v448h154v-700h-155l-276 448v-448h-154v700z" />
    <glyph glyph-name="O" unicode="O" horiz-adv-x="744" 
d="M703 350q0 -77 -22.5 -143.5t-65.5 -115t-104 -76t-139 -27.5t-139 27.5t-104 76t-65.5 115t-22.5 143.5t22.5 143.5t65.5 115t104 76t139 27.5t139 -27.5t104 -76t65.5 -115t22.5 -143.5zM202 350q0 -53 12 -95.5t34 -72t53.5 -45.5t70.5 -16t70.5 16t53.5 45.5t34 72
t12 95.5t-12 95.5t-34 72t-53.5 45.5t-70.5 16t-70.5 -16t-53.5 -45.5t-34 -72t-12 -95.5z" />
    <glyph glyph-name="P" unicode="P" horiz-adv-x="634" 
d="M602 469q0 -115 -74 -172.5t-207 -57.5h-88v-239h-159v700h247q133 0 207 -57.5t74 -173.5zM441 469q0 56 -32 80.5t-95 24.5h-81v-209h81q63 0 95 24.5t32 79.5z" />
    <glyph glyph-name="Q" unicode="Q" horiz-adv-x="744" 
d="M527 23q-67 -35 -155 -35q-78 0 -139 27.5t-104 76t-65.5 115t-22.5 143.5t22.5 143.5t65.5 115t104 76t139 27.5t139 -27.5t104 -76t65.5 -115t22.5 -143.5q0 -69 -18 -129t-53 -108l86 -91l-102 -94zM202 350q0 -53 12 -95.5t34 -72t53.5 -45.5t70.5 -16q29 0 55 9
l-81 88l102 94l74 -80q20 51 20 118q0 53 -12 95.5t-34 72t-53.5 45.5t-70.5 16t-70.5 -16t-53.5 -45.5t-34 -72t-12 -95.5z" />
    <glyph glyph-name="R" unicode="R" horiz-adv-x="672" 
d="M610 483q0 -73 -36 -121.5t-99 -72.5l179 -289h-172l-152 267h-97v-267h-159v700h255q65 0 117 -13.5t88.5 -40.5t56 -67.5t19.5 -95.5zM451 483q0 94 -121 94h-97v-187h97q60 0 90.5 22.5t30.5 70.5z" />
    <glyph glyph-name="S" unicode="S" horiz-adv-x="623" 
d="M316 116q51 0 79 19.5t28 51.5q0 18 -5.5 32t-21.5 26.5t-46 25t-79 26.5q-111 32 -160.5 86.5t-49.5 130.5q0 43 16 79.5t46.5 63t75 41t101.5 14.5q77 0 143.5 -28.5t113.5 -84.5l-107 -79q-26 30 -61 47t-74 17q-48 0 -70.5 -17.5t-22.5 -46.5q0 -16 6.5 -29t22 -25
t42 -24t67.5 -24q57 -17 99 -37t70 -46t41.5 -59.5t13.5 -77.5q0 -47 -18.5 -86t-52 -66.5t-81.5 -42.5t-108 -15q-91 0 -165 32t-128 93l114 84q32 -36 75.5 -58.5t95.5 -22.5z" />
    <glyph glyph-name="T" unicode="T" horiz-adv-x="599" 
d="M220 569h-202v131h563v-131h-202v-569h-159v569z" />
    <glyph glyph-name="U" unicode="U" horiz-adv-x="748" 
d="M374 -12q-67 0 -122 19t-94.5 56t-61.5 92t-22 128v417h159v-421q0 -78 34.5 -118t106.5 -40t106.5 40t34.5 118v421h159v-417q0 -73 -21.5 -128t-60.5 -92t-94.5 -56t-123.5 -19z" />
    <glyph glyph-name="V" unicode="V" horiz-adv-x="722" 
d="M262 0l-244 700h170l173 -523l173 523h170l-244 -700h-198z" />
    <glyph glyph-name="W" unicode="W" horiz-adv-x="1034" 
d="M597 700l121 -503l134 503h164l-198 -700h-189l-112 488l-112 -488h-189l-198 700h164l134 -503l121 503h160z" />
    <glyph glyph-name="X" unicode="X" horiz-adv-x="667" 
d="M479 0l-146 248l-145 -248h-174l217 361l-202 339h174l130 -221l131 221h174l-203 -339l218 -361h-174z" />
    <glyph glyph-name="Y" unicode="Y" horiz-adv-x="662" 
d="M648 700l-237 -425v-275h-160v275l-237 425h171l146 -287l146 287h171z" />
    <glyph glyph-name="Z" unicode="Z" horiz-adv-x="596" 
d="M32 125l328 444h-310v131h504v-125l-328 -444h338v-131h-532v125z" />
    <glyph glyph-name="bracketleft" unicode="[" horiz-adv-x="430" 
d="M111 750h301v-103h-167v-674h167v-103h-301v880z" />
    <glyph glyph-name="backslash" unicode="\" horiz-adv-x="535" 
d="M2 704l108 63l423 -835l-109 -64z" />
    <glyph glyph-name="bracketright" unicode="]" horiz-adv-x="430" 
d="M319 -130h-301v103h167v674h-167v103h301v-880z" />
    <glyph glyph-name="asciicircum" unicode="^" horiz-adv-x="635" 
d="M367 704l194 -284l-104 -68l-140 199l-140 -199l-103 68l193 284h100z" />
    <glyph glyph-name="underscore" unicode="_" horiz-adv-x="500" 
d="M0 -102h500v-68h-500v68z" />
    <glyph glyph-name="grave" unicode="`" horiz-adv-x="390" 
d="M85 675l72 76l148 -136l-53 -62z" />
    <glyph glyph-name="a" unicode="a" horiz-adv-x="580" 
d="M372 315q0 47 -24.5 71.5t-81.5 24.5q-33 0 -64 -11.5t-54 -30.5l-84 81q42 37 101 58.5t122 21.5q64 0 108.5 -16t72 -45.5t40 -70.5t12.5 -91v-307h-148v37q-27 -24 -62.5 -36.5t-82.5 -12.5q-39 0 -74 11t-61 32.5t-41.5 53t-15.5 71.5t15.5 71.5t41.5 53t61 32.5
t74 11q47 0 82.5 -12.5t62.5 -36.5v40zM372 176q-20 20 -47 29.5t-57 9.5q-38 0 -58.5 -15.5t-20.5 -43.5t20.5 -43.5t58.5 -15.5q30 0 57 9.5t47 29.5v40z" />
    <glyph glyph-name="b" unicode="b" horiz-adv-x="632" 
d="M590 259q0 -64 -15.5 -114.5t-44.5 -85t-70 -53t-92 -18.5q-44 0 -83 16t-69 44v-48h-152v730h152v-260q30 28 69 44t83 16q51 0 92 -18.5t70 -53t44.5 -85t15.5 -114.5zM321 411q-27 0 -56 -12t-49 -33v-214q20 -21 49 -33t56 -12q58 0 86.5 39.5t28.5 112.5
t-28.5 112.5t-86.5 39.5z" />
    <glyph glyph-name="c" unicode="c" horiz-adv-x="558" 
d="M37 259q0 59 18.5 109t52.5 86t82.5 56t108.5 20q81 0 141.5 -35t95.5 -95l-117 -57q-20 32 -46 50t-64 18q-58 0 -88 -41t-30 -111t30 -111t88 -41q38 0 64 18t46 50l117 -57q-35 -60 -95.5 -95t-141.5 -35q-60 0 -108.5 20t-82.5 56t-52.5 86t-18.5 109z" />
    <glyph glyph-name="d" unicode="d" horiz-adv-x="632" 
d="M41 259q0 64 15.5 114.5t44.5 85t70 53t92 18.5q44 0 83 -16t69 -44v260h152v-730h-152v48q-30 -28 -69 -44t-83 -16q-51 0 -92 18.5t-70 53t-44.5 85t-15.5 114.5zM310 411q-58 0 -86.5 -39.5t-28.5 -112.5t28.5 -112.5t86.5 -39.5q27 0 56 12t49 33v214q-20 21 -49 33
t-56 12z" />
    <glyph glyph-name="e" unicode="e" horiz-adv-x="592" 
d="M555 257v-24t-2 -23h-365q8 -49 42 -76t88 -27q37 0 64.5 16t47.5 44l105 -73q-39 -52 -95.5 -79t-127.5 -27q-64 0 -115 20t-86.5 56t-54.5 86t-19 109t18.5 109t53 86t82 56t106.5 20q58 0 105.5 -20t81.5 -56t52.5 -86.5t18.5 -110.5zM297 411q-46 0 -74.5 -25
t-35.5 -73h218q-5 46 -34 72t-74 26z" />
    <glyph glyph-name="f" unicode="f" horiz-adv-x="401" 
d="M300 730q23 0 45 -1t43 -3v-112q-14 1 -28.5 1.5t-26.5 0.5q-45 0 -61.5 -16.5t-16.5 -51.5v-30h123v-117h-123v-401h-152v401h-89v117h89v36q0 91 47.5 133.5t149.5 42.5z" />
    <glyph glyph-name="g" unicode="g" horiz-adv-x="632" 
d="M415 518h152v-488q0 -124 -68 -189t-193 -65q-77 0 -137.5 26t-101.5 74l106 69q26 -29 58 -45t70 -16q50 0 82 30.5t32 92.5v45q-30 -28 -69 -44t-83 -16q-103 0 -162.5 70.5t-59.5 198.5t59.5 198.5t162.5 70.5q44 0 83 -16t69 -44v48zM310 111q27 0 56 12t49 33v210
q-20 21 -49 33t-56 12q-58 0 -86.5 -39t-28.5 -111t28.5 -111t86.5 -39z" />
    <glyph glyph-name="h" unicode="h" 
d="M333 411q-35 0 -66.5 -17t-50.5 -40v-354h-152v730h152v-270q28 29 72 49.5t98 20.5q81 0 131 -50t50 -148v-332h-152v316q0 46 -20 70.5t-62 24.5z" />
    <glyph glyph-name="i" unicode="i" horiz-adv-x="292" 
d="M70 518h152v-518h-152v518zM236 658q0 -38 -26 -63t-64 -25t-64 25t-26 63t26 63t64 25t64 -25t26 -63z" />
    <glyph glyph-name="j" unicode="j" horiz-adv-x="292" 
d="M5 -223q-14 0 -30 0.5t-27 2.5v117q11 -1 22 -1h22q43 0 60.5 20t17.5 62v540h152v-509q0 -59 -10 -103t-34.5 -72.5t-66.5 -42.5t-106 -14zM236 658q0 -38 -26 -63t-64 -25t-64 25t-26 63t26 63t64 25t64 -25t26 -63z" />
    <glyph glyph-name="k" unicode="k" horiz-adv-x="587" 
d="M216 730v-424l169 212h173l-172 -196l196 -322h-165l-124 217l-77 -88v-129h-152v730h152z" />
    <glyph glyph-name="l" unicode="l" horiz-adv-x="290" 
d="M69 730h152v-730h-152v730z" />
    <glyph glyph-name="m" unicode="m" horiz-adv-x="916" 
d="M216 0h-152v518h152v-54q32 29 71.5 47.5t86.5 18.5q97 0 137 -75q34 33 77 54t103 21q79 0 121.5 -49.5t42.5 -143.5v-337h-152v319q0 92 -71 92q-27 0 -53.5 -14.5t-43.5 -36.5q1 -14 1 -27v-27v-306h-152v319q0 45 -15.5 68.5t-55.5 23.5q-27 0 -53.5 -14t-43.5 -34
v-363z" />
    <glyph glyph-name="n" unicode="n" 
d="M333 411q-35 0 -66.5 -17t-50.5 -40v-354h-152v518h152v-58q28 29 72 49.5t98 20.5q81 0 131 -50t50 -148v-332h-152v316q0 46 -20 70.5t-62 24.5z" />
    <glyph glyph-name="o" unicode="o" horiz-adv-x="604" 
d="M567 259q0 -60 -19 -109.5t-53.5 -85.5t-83.5 -56t-109 -20t-109 20t-83.5 56t-53.5 85.5t-19 109.5t19 109.5t53.5 85.5t83.5 56t109 20t109 -20t83.5 -56t53.5 -85.5t19 -109.5zM413 259q0 73 -29 112.5t-82 39.5t-82 -39.5t-29 -112.5t29 -112.5t82 -39.5t82 39.5
t29 112.5z" />
    <glyph glyph-name="p" unicode="p" horiz-adv-x="632" 
d="M590 259q0 -64 -15.5 -114.5t-44.5 -85t-70 -53t-92 -18.5q-44 0 -83 16t-69 44v-260h-152v730h152v-48q30 28 69 44t83 16q51 0 92 -18.5t70 -53t44.5 -85t15.5 -114.5zM321 107q58 0 86.5 39.5t28.5 112.5t-28.5 112.5t-86.5 39.5q-27 0 -56 -12t-49 -33v-214
q20 -21 49 -33t56 -12z" />
    <glyph glyph-name="q" unicode="q" horiz-adv-x="632" 
d="M42 259q0 64 15.5 114.5t44.5 85t70 53t92 18.5q44 0 83 -16t69 -44v48h152v-730h-152v260q-30 -28 -69 -44t-83 -16q-51 0 -92 18.5t-70 53t-44.5 85t-15.5 114.5zM311 107q27 0 56 12t49 33v214q-20 21 -49 33t-56 12q-58 0 -86.5 -39.5t-28.5 -112.5t28.5 -112.5
t86.5 -39.5z" />
    <glyph glyph-name="r" unicode="r" horiz-adv-x="414" 
d="M400 408q-9 1 -18.5 1.5t-20.5 0.5q-46 0 -84 -20t-61 -54v-336h-152v518h152v-64q24 35 61.5 55.5t90.5 20.5q8 0 17 -0.5t15 -1.5v-120z" />
    <glyph glyph-name="s" unicode="s" horiz-adv-x="527" 
d="M55 380q0 32 13.5 59.5t39 47.5t62.5 31.5t85 11.5q66 0 123 -22t98 -64l-93 -72q-18 20 -46.5 33t-59.5 13t-49.5 -8.5t-18.5 -25.5q0 -9 5 -17t18.5 -16t36.5 -17t58 -19q78 -24 120 -64.5t42 -103.5q0 -69 -53.5 -114t-158.5 -45q-77 0 -141 25.5t-109 76.5l100 74
q27 -28 61 -46t75 -18q72 0 72 40q0 10 -4.5 19t-16.5 17t-32 16t-50 17q-95 29 -136 69.5t-41 101.5z" />
    <glyph glyph-name="t" unicode="t" horiz-adv-x="407" 
d="M290 -12q-53 0 -88.5 12t-58 38t-32 66.5t-9.5 96.5v200h-88v117h88v155h152v-155h122v-117h-122v-215q0 -44 17 -61.5t62 -17.5h22.5t20.5 1v-116q-21 -2 -42 -3t-44 -1z" />
    <glyph glyph-name="u" unicode="u" horiz-adv-x="622" 
d="M311 -12q-116 0 -183.5 59.5t-67.5 177.5v293h152v-302q0 -55 28 -82t71 -27t71 27t28 82v302h152v-293q0 -118 -67.5 -177.5t-183.5 -59.5z" />
    <glyph glyph-name="v" unicode="v" horiz-adv-x="576" 
d="M203 0l-189 518h158l116 -374l116 374h158l-189 -518h-170z" />
    <glyph glyph-name="w" unicode="w" horiz-adv-x="854" 
d="M359 518h136l94 -342l95 342h156l-163 -518h-160l-90 325l-90 -325h-160l-163 518h156l95 -342z" />
    <glyph glyph-name="x" unicode="x" horiz-adv-x="560" 
d="M186 518l94 -161l94 161h159l-148 -248l165 -270h-160l-110 183l-110 -183h-160l165 270l-148 248h159z" />
    <glyph glyph-name="y" unicode="y" horiz-adv-x="575" 
d="M139 -212l81 221l-206 509h154l123 -328l117 328h153l-270 -730h-152z" />
    <glyph glyph-name="z" unicode="z" horiz-adv-x="484" 
d="M23 112l244 290h-230v116h414v-112l-244 -290h254v-116h-438v112z" />
    <glyph glyph-name="braceleft" unicode="{" horiz-adv-x="415" 
d="M152 158q0 48 -27 74t-68 26v103q41 0 68 26t27 74v117q0 95 40.5 133.5t125.5 38.5h79v-104h-69q-42 0 -42 -44v-134q0 -63 -21.5 -102.5t-80.5 -55.5q59 -16 80.5 -55t21.5 -103v-135q0 -43 42 -43h69v-104h-79q-38 0 -69 7t-52.5 23t-33 42t-11.5 64v152z" />
    <glyph glyph-name="bar" unicode="|" horiz-adv-x="311" 
d="M102 769h107v-969h-107v969z" />
    <glyph glyph-name="braceright" unicode="}" horiz-adv-x="415" 
d="M263 6q0 -38 -11.5 -64t-33 -42t-52.5 -23t-69 -7h-79v104h69q42 0 42 43v135q0 64 21.5 103t80.5 55q-59 16 -80.5 55.5t-21.5 102.5v134q0 44 -42 44h-69v104h79q85 0 125.5 -38.5t40.5 -133.5v-117q0 -48 27 -74t68 -26v-103q-41 0 -68 -26t-27 -74v-152z" />
    <glyph glyph-name="asciitilde" unicode="~" horiz-adv-x="616" 
d="M578 392q-11 -72 -54.5 -115t-107.5 -43q-58 0 -118 35q-26 15 -41.5 20.5t-35.5 5.5t-36 -11.5t-24 -40.5l-124 20q11 72 54.5 115t107.5 43q58 0 118 -35q26 -15 41.5 -20.5t35.5 -5.5t36 11.5t24 40.5z" />
    <glyph glyph-name="uni00A0" unicode="&#xa0;" horiz-adv-x="300" 
 />
    <glyph glyph-name="exclamdown" unicode="&#xa1;" horiz-adv-x="314" 
d="M75 -182v170l23 335h118l23 -335v-170h-164zM157 530q34 0 57.5 -23.5t23.5 -58.5t-23.5 -58.5t-57.5 -23.5t-57.5 23.5t-23.5 58.5t23.5 58.5t57.5 23.5z" />
    <glyph glyph-name="cent" unicode="&#xa2;" horiz-adv-x="558" 
d="M37 259q0 55 16 102t46 82.5t72.5 57.5t96.5 27v88h72v-89q66 -8 115.5 -41.5t80.5 -85.5l-117 -57q-16 25 -35 41.5t-44 22.5v-297q47 13 79 65l117 -57q-31 -53 -80.5 -86t-115.5 -41v-89h-72v88q-54 5 -96.5 27t-72.5 57t-46 82t-16 103zM191 259q0 -57 19.5 -94.5
t57.5 -51.5v291q-38 -13 -57.5 -50.5t-19.5 -94.5z" />
    <glyph glyph-name="sterling" unicode="&#xa3;" horiz-adv-x="614" 
d="M346 712q69 0 127.5 -27.5t96.5 -75.5l-108 -79q-19 21 -44 35t-54 14q-93 0 -93 -95v-89h187v-72h-187v-53q0 -44 -14.5 -80t-41.5 -59h371v-131h-549v122q75 49 75 135v66h-75v72h75v96q0 111 61.5 166t172.5 55z" />
    <glyph glyph-name="currency" unicode="&#xa4;" horiz-adv-x="730" 
d="M592 332q0 -29 -7 -56.5t-20 -51.5l91 -92l-85 -88l-93 95q-50 -28 -113 -28t-113 28l-93 -95l-85 88l91 92q-13 24 -20 51.5t-7 56.5t7 56.5t20 51.5l-91 92l85 88l93 -95q50 28 113 28t113 -28l93 95l85 -88l-91 -92q13 -24 20 -51.5t7 -56.5zM465 332q0 52 -27 83
t-73 31t-73 -31t-27 -83t27 -83t73 -31t73 31t27 83z" />
    <glyph glyph-name="yen" unicode="&#xa5;" horiz-adv-x="662" 
d="M251 214v58h-190v63h156l-203 365h171l146 -287l146 287h171l-204 -365h157v-63h-190v-58h190v-63h-190v-151h-160v151h-190v63h190z" />
    <glyph glyph-name="brokenbar" unicode="&#xa6;" horiz-adv-x="311" 
d="M209 228v-332h-107v332h107zM209 692v-333h-107v333h107z" />
    <glyph glyph-name="section" unicode="&#xa7;" horiz-adv-x="534" 
d="M63 293q0 48 24 80.5t67 51.5q-44 21 -68 53t-24 81q0 34 14.5 62t41.5 48t64.5 31.5t84.5 11.5q63 0 117 -21.5t92 -62.5l-88 -66q-21 23 -47.5 33.5t-55.5 10.5q-32 0 -50 -13t-18 -33q0 -21 25.5 -37t88.5 -36q81 -26 116 -63.5t35 -97.5q0 -44 -26 -77t-70 -52
q46 -20 71.5 -54t25.5 -82q0 -35 -13.5 -64t-40.5 -51t-66.5 -34t-91.5 -12q-72 0 -131 24.5t-99 70.5l93 68q25 -26 57.5 -41.5t67.5 -15.5q36 0 52.5 14.5t16.5 34.5q0 22 -18 37.5t-75 31.5q-87 25 -129.5 64t-42.5 105zM275 237q29 8 46.5 27.5t17.5 45.5q0 54 -70 74
q-29 -8 -46.5 -27.5t-17.5 -45.5q0 -54 70 -74z" />
    <glyph glyph-name="dieresis" unicode="&#xa8;" horiz-adv-x="390" 
d="M230 646q0 29 19.5 48.5t48.5 19.5t48.5 -19.5t19.5 -48.5t-19.5 -48.5t-48.5 -19.5t-48.5 19.5t-19.5 48.5zM23 646q0 29 19.5 48.5t48.5 19.5t48.5 -19.5t19.5 -48.5t-19.5 -48.5t-48.5 -19.5t-48.5 19.5t-19.5 48.5z" />
    <glyph glyph-name="copyright" unicode="&#xa9;" horiz-adv-x="822" 
d="M208 350q0 48 15 87.5t43 68.5t66 45t85 16q63 0 111 -29t74 -79l-88 -42q-16 24 -36.5 38t-51.5 14q-45 0 -71.5 -32t-26.5 -87t26.5 -87t71.5 -32q31 0 51.5 14t36.5 38l88 -42q-26 -50 -74 -79t-111 -29q-47 0 -85 16t-66 45t-43 68.5t-15 87.5zM49 350q0 75 28.5 141
t77.5 115t115 77.5t141 28.5t141 -28.5t115 -77.5t77.5 -115t28.5 -141t-28.5 -141t-77.5 -115t-115 -77.5t-141 -28.5t-141 28.5t-115 77.5t-77.5 115t-28.5 141zM717 350q0 64 -24 120.5t-65.5 98.5t-97.5 66.5t-119 24.5t-119 -24.5t-97.5 -66.5t-65.5 -98.5t-24 -120.5
q0 -65 24 -121.5t65.5 -98.5t97.5 -66t119 -24t119 24t97.5 66t65.5 98.5t24 121.5z" />
    <glyph glyph-name="ordfeminine" unicode="&#xaa;" horiz-adv-x="462" 
d="M40 443q0 29 10.5 52t29.5 39t44 24.5t55 8.5q33 0 59 -8.5t46 -22.5v23q0 28 -17 43t-55 15q-23 0 -46 -8t-41 -22l-65 65q35 28 78 42t90 14q90 0 132.5 -38.5t42.5 -107.5v-236h-119v29q-41 -36 -105 -36q-29 0 -54.5 8.5t-44.5 24.5t-29.5 39t-10.5 52zM209 486
q-30 0 -46.5 -10.5t-16.5 -32.5q0 -23 18 -32.5t51 -9.5q17 0 36 7t33 21v32q-15 13 -35 19t-40 6z" />
    <glyph glyph-name="guillemotleft" unicode="&#xab;" horiz-adv-x="611" 
d="M46 340l216 158l57 -76l-156 -110l156 -110l-57 -76l-216 158v56zM292 340l216 158l57 -76l-155 -110l155 -110l-57 -76l-216 158v56z" />
    <glyph glyph-name="logicalnot" unicode="&#xac;" horiz-adv-x="616" 
d="M50 450h506v-293h-129v186h-377v107z" />
    <glyph glyph-name="uni00AD" unicode="&#xad;" horiz-adv-x="404" 
d="M55 273v117h294v-117h-294z" />
    <glyph glyph-name="registered" unicode="&#xae;" horiz-adv-x="822" 
d="M49 350q0 75 28.5 141t77.5 115t115 77.5t141 28.5t141 -28.5t115 -77.5t77.5 -115t28.5 -141t-28.5 -141t-77.5 -115t-115 -77.5t-141 -28.5t-141 28.5t-115 77.5t-77.5 115t-28.5 141zM105 350q0 -65 24 -121.5t65.5 -98.5t97.5 -66t119 -24t119 24t97.5 66t65.5 98.5
t24 121.5q0 64 -24 120.5t-65.5 98.5t-97.5 66.5t-119 24.5t-119 -24.5t-97.5 -66.5t-65.5 -98.5t-24 -120.5zM584 428q0 -45 -21.5 -74t-60.5 -43l109 -170h-118l-88 154h-52v-154h-101v417h168q75 0 119.5 -33.5t44.5 -96.5zM479 428q0 27 -15.5 40.5t-50.5 13.5h-60v-108
h60q35 0 50.5 14t15.5 40z" />
    <glyph glyph-name="macron" unicode="&#xaf;" horiz-adv-x="390" 
d="M42 692h306v-92h-306v92z" />
    <glyph glyph-name="degree" unicode="&#xb0;" horiz-adv-x="400" 
d="M144 575q0 -25 15.5 -41t40.5 -16t40.5 16t15.5 41t-15.5 41t-40.5 16t-40.5 -16t-15.5 -41zM60 575q0 28 11 53t29.5 44t44 29.5t55.5 10.5t55.5 -10.5t44 -29.5t29.5 -44t11 -53q0 -29 -11 -53.5t-29.5 -43.5t-44 -29.5t-55.5 -10.5t-55.5 10.5t-44 29.5t-29.5 43.5
t-11 53.5z" />
    <glyph glyph-name="plusminus" unicode="&#xb1;" horiz-adv-x="616" 
d="M243 336h-188v107h188v184h130v-184h188v-107h-188v-185h-130v185zM55 0v107h506v-107h-506z" />
    <glyph glyph-name="uni00B2" unicode="&#xb2;" horiz-adv-x="430" 
d="M198 610q-23 0 -43 -11t-36 -29l-80 57q31 38 73.5 59.5t98.5 21.5q74 0 115.5 -38t41.5 -102q0 -30 -12 -60.5t-32.5 -60t-48.5 -58.5t-60 -57h155v-95h-319v77q43 34 79.5 68t63.5 66t42 60.5t15 52.5q0 21 -13.5 35t-39.5 14z" />
    <glyph glyph-name="uni00B3" unicode="&#xb3;" horiz-adv-x="430" 
d="M196 319q31 0 48 16t17 40q0 32 -24.5 47t-64.5 15h-43v81h43q38 0 57.5 14.5t19.5 39.5q0 21 -12 33t-35 12q-42 0 -69 -34l-77 54q27 32 66 51.5t90 19.5q69 0 111 -34t42 -93q0 -35 -19 -62t-51 -41q34 -13 57.5 -40.5t23.5 -70.5q0 -29 -11.5 -54t-33.5 -44
t-54 -29.5t-74 -10.5q-54 0 -96 20t-68 57l78 54q14 -20 35 -30.5t44 -10.5z" />
    <glyph glyph-name="acute" unicode="&#xb4;" horiz-adv-x="390" 
d="M138 553l-53 62l148 136l72 -76z" />
    <glyph glyph-name="mu" unicode="&#xb5;" horiz-adv-x="631" 
d="M315 -12q-32 0 -57 12.5t-42 35.5v-248h-152v730h152v-366q16 -22 42.5 -33t56.5 -11q31 0 57.5 11t42.5 33v366h152v-518h-152v44q-16 -26 -42 -41t-58 -15z" />
    <glyph glyph-name="paragraph" unicode="&#xb6;" horiz-adv-x="623" 
d="M264 266q-48 0 -89 14.5t-71 42.5t-47 68.5t-17 91.5t17 91.5t47 68.5t71 42.5t89 14.5h274v-831h-108v734h-42v-734h-111v397h-13z" />
    <glyph glyph-name="periodcentered" unicode="&#xb7;" horiz-adv-x="314" 
d="M76 332q0 35 23.5 58.5t57.5 23.5t57.5 -23.5t23.5 -58.5t-23.5 -58.5t-57.5 -23.5t-57.5 23.5t-23.5 58.5z" />
    <glyph glyph-name="cedilla" unicode="&#xb8;" horiz-adv-x="390" 
d="M162 -161q20 0 31.5 8t11.5 23q0 17 -20.5 28.5t-60.5 12.5l-8 11l37 78h102l-24 -48q35 -9 56 -33t21 -58q0 -39 -32.5 -69t-99.5 -30q-34 0 -63.5 10t-50.5 27l49 59q21 -19 51 -19z" />
    <glyph glyph-name="uni00B9" unicode="&#xb9;" horiz-adv-x="430" 
d="M125 529l-62 66l141 106h100v-464h-113v340z" />
    <glyph glyph-name="ordmasculine" unicode="&#xba;" horiz-adv-x="462" 
d="M427 513q0 -42 -14 -78t-39.5 -62t-62 -40.5t-80.5 -14.5t-80.5 14.5t-62 40.5t-39.5 62t-14 78t14 78t39.5 62t62 40.5t80.5 14.5t80.5 -14.5t62 -40.5t39.5 -62t14 -78zM155 513q0 -50 20.5 -77t55.5 -27t55.5 27t20.5 77t-20.5 77t-55.5 27t-55.5 -27t-20.5 -77z" />
    <glyph glyph-name="guillemotright" unicode="&#xbb;" horiz-adv-x="611" 
d="M565 284l-216 -158l-57 76l156 110l-156 110l57 76l216 -158v-56zM319 284l-216 -158l-57 76l155 110l-155 110l57 76l216 -158v-56z" />
    <glyph glyph-name="onequarter" unicode="&#xbc;" horiz-adv-x="1049" 
d="M125 529l-62 66l141 106h100v-464h-113v340zM750 673l-371 -688l-77 42l371 688zM646 89v92l196 282h123v-278h52v-96h-52v-89h-110v89h-209zM762 185h93v134z" />
    <glyph glyph-name="onehalf" unicode="&#xbd;" horiz-adv-x="1049" 
d="M125 529l-62 66l141 106h100v-464h-113v340zM750 673l-371 -688l-77 42l371 688zM817 373q-23 0 -43 -11t-36 -29l-80 57q31 38 73.5 59.5t98.5 21.5q74 0 115.5 -38t41.5 -102q0 -30 -12 -60.5t-32.5 -60t-48.5 -58.5t-60 -57h155v-95h-319v77q43 34 79.5 68t63.5 66
t42 60.5t15 52.5q0 21 -13.5 35t-39.5 14z" />
    <glyph glyph-name="threequarters" unicode="&#xbe;" horiz-adv-x="1049" 
d="M196 319q31 0 48 16t17 40q0 32 -24.5 47t-64.5 15h-43v81h43q38 0 57.5 14.5t19.5 39.5q0 21 -12 33t-35 12q-42 0 -69 -34l-77 54q27 32 66 51.5t90 19.5q69 0 111 -34t42 -93q0 -35 -19 -62t-51 -41q34 -13 57.5 -40.5t23.5 -70.5q0 -29 -11.5 -54t-33.5 -44
t-54 -29.5t-74 -10.5q-54 0 -96 20t-68 57l78 54q14 -20 35 -30.5t44 -10.5zM750 673l-371 -688l-77 42l371 688zM646 89v92l196 282h123v-278h52v-96h-52v-89h-110v89h-209zM762 185h93v134z" />
    <glyph glyph-name="questiondown" unicode="&#xbf;" horiz-adv-x="560" 
d="M287 -194q-51 0 -92 12.5t-70.5 36.5t-45 58t-15.5 77q0 59 27.5 104.5t87.5 87.5q31 22 42.5 43.5t11.5 57.5v40h158v-54q0 -56 -21.5 -96.5t-74.5 -75.5q-39 -26 -54.5 -48.5t-15.5 -48.5q0 -61 77 -61q32 0 62 16t51 41l104 -83q-42 -49 -100.5 -78t-131.5 -29z
M312 530q34 0 57.5 -23.5t23.5 -58.5t-23.5 -58.5t-57.5 -23.5t-57.5 23.5t-23.5 58.5t23.5 58.5t57.5 23.5z" />
    <glyph glyph-name="Agrave" unicode="&#xc0;" horiz-adv-x="722" 
d="M704 0h-170l-46 144h-255l-45 -144h-170l244 700h198zM273 270h176l-88 280zM216 869l72 76l148 -136l-53 -62z" />
    <glyph glyph-name="Aacute" unicode="&#xc1;" horiz-adv-x="722" 
d="M704 0h-170l-46 144h-255l-45 -144h-170l244 700h198zM273 270h176l-88 280zM339 747l-53 62l148 136l72 -76z" />
    <glyph glyph-name="Acircumflex" unicode="&#xc2;" horiz-adv-x="722" 
d="M704 0h-170l-46 144h-255l-45 -144h-170l244 700h198zM273 270h176l-88 280zM399 930l130 -134l-61 -49l-107 91l-107 -91l-61 49l130 134h76z" />
    <glyph glyph-name="Atilde" unicode="&#xc3;" horiz-adv-x="722" 
d="M704 0h-170l-46 144h-255l-45 -144h-170l244 700h198zM273 270h176l-88 280zM535 898q-8 -61 -35.5 -92.5t-71.5 -31.5q-20 0 -37.5 7t-32.5 16t-27.5 16t-23.5 7q-12 0 -21 -10.5t-11 -31.5l-87 11q8 61 35.5 92.5t71.5 31.5q20 0 37.5 -7t32.5 -16t27.5 -16t23.5 -7
q12 0 21 10.5t11 31.5z" />
    <glyph glyph-name="Adieresis" unicode="&#xc4;" horiz-adv-x="722" 
d="M704 0h-170l-46 144h-255l-45 -144h-170l244 700h198zM273 270h176l-88 280zM397 840q0 29 19.5 48.5t48.5 19.5t48.5 -19.5t19.5 -48.5t-19.5 -48.5t-48.5 -19.5t-48.5 19.5t-19.5 48.5zM190 840q0 29 19.5 48.5t48.5 19.5t48.5 -19.5t19.5 -48.5t-19.5 -48.5
t-48.5 -19.5t-48.5 19.5t-19.5 48.5z" />
    <glyph glyph-name="Aring" unicode="&#xc5;" horiz-adv-x="722" 
d="M704 0h-170l-46 144h-255l-45 -144h-170l244 700h198zM273 270h176l-88 280zM323 844q0 -17 10.5 -28t27.5 -11t27.5 11t10.5 28t-10.5 28t-27.5 11t-27.5 -11t-10.5 -28zM246 844q0 23 9 43t24.5 35t36.5 23.5t45 8.5t45 -8.5t36.5 -23.5t24.5 -35t9 -43t-9 -43
t-24.5 -35t-36.5 -23.5t-45 -8.5t-45 8.5t-36.5 23.5t-24.5 35t-9 43z" />
    <glyph glyph-name="AE" unicode="&#xc6;" horiz-adv-x="921" 
d="M256 139l-69 -139h-171l359 700h496v-127h-257v-150h222v-127h-222v-169h266v-127h-425v139h-199zM455 544l-139 -279h139v279z" />
    <glyph glyph-name="Ccedilla" unicode="&#xc7;" horiz-adv-x="708" 
d="M360 -161q20 0 31.5 8t11.5 23q0 17 -20.5 28.5t-60.5 12.5l-8 11l32 68q-69 6 -125.5 34t-96 74.5t-61.5 110.5t-22 141q0 82 24.5 149t69.5 114t107.5 73t139.5 26q100 0 176.5 -42.5t120.5 -119.5l-132 -65q-28 46 -67.5 70t-91.5 24q-39 0 -73 -14.5t-59 -43.5
t-39.5 -72t-14.5 -99t14.5 -99t39.5 -72t59 -43.5t73 -14.5q52 0 91.5 24t67.5 70l132 -65q-36 -63 -95 -103.5t-134 -52.5l-21 -42q35 -9 56 -33t21 -58q0 -39 -32.5 -69t-99.5 -30q-34 0 -63.5 10t-50.5 27l49 59q21 -19 51 -19z" />
    <glyph glyph-name="Egrave" unicode="&#xc8;" horiz-adv-x="592" 
d="M74 700h468v-127h-309v-150h274v-127h-274v-169h318v-127h-477v700zM177 869l72 76l148 -136l-53 -62z" />
    <glyph glyph-name="Eacute" unicode="&#xc9;" horiz-adv-x="592" 
d="M74 700h468v-127h-309v-150h274v-127h-274v-169h318v-127h-477v700zM269 747l-53 62l148 136l72 -76z" />
    <glyph glyph-name="Ecircumflex" unicode="&#xca;" horiz-adv-x="592" 
d="M74 700h468v-127h-309v-150h274v-127h-274v-169h318v-127h-477v700zM348 930l130 -134l-61 -49l-107 91l-107 -91l-61 49l130 134h76z" />
    <glyph glyph-name="Edieresis" unicode="&#xcb;" horiz-adv-x="592" 
d="M74 700h468v-127h-309v-150h274v-127h-274v-169h318v-127h-477v700zM345 840q0 29 19.5 48.5t48.5 19.5t48.5 -19.5t19.5 -48.5t-19.5 -48.5t-48.5 -19.5t-48.5 19.5t-19.5 48.5zM138 840q0 29 19.5 48.5t48.5 19.5t48.5 -19.5t19.5 -48.5t-19.5 -48.5t-48.5 -19.5
t-48.5 19.5t-19.5 48.5z" />
    <glyph glyph-name="Igrave" unicode="&#xcc;" horiz-adv-x="316" 
d="M238 700v-700h-160v700h160zM-1 869l72 76l148 -136l-53 -62z" />
    <glyph glyph-name="Iacute" unicode="&#xcd;" horiz-adv-x="316" 
d="M238 700v-700h-160v700h160zM150 747l-53 62l148 136l72 -76z" />
    <glyph glyph-name="Icircumflex" unicode="&#xce;" horiz-adv-x="316" 
d="M238 700v-700h-160v700h160zM196 930l130 -134l-61 -49l-107 91l-107 -91l-61 49l130 134h76z" />
    <glyph glyph-name="Idieresis" unicode="&#xcf;" horiz-adv-x="316" 
d="M238 700v-700h-160v700h160zM194 840q0 29 19.5 48.5t48.5 19.5t48.5 -19.5t19.5 -48.5t-19.5 -48.5t-48.5 -19.5t-48.5 19.5t-19.5 48.5zM-13 840q0 29 19.5 48.5t48.5 19.5t48.5 -19.5t19.5 -48.5t-19.5 -48.5t-48.5 -19.5t-48.5 19.5t-19.5 48.5z" />
    <glyph glyph-name="Eth" unicode="&#xd0;" horiz-adv-x="713" 
d="M671 350q0 -78 -24 -142.5t-68 -110.5t-107 -71.5t-142 -25.5h-256v310h-73v80h73v310h256q79 0 142 -25.5t107 -72t68 -110.5t24 -142zM233 310v-179h91q84 0 135 54.5t51 164.5t-51 164.5t-135 54.5h-91v-179h134v-80h-134z" />
    <glyph glyph-name="Ntilde" unicode="&#xd1;" horiz-adv-x="733" 
d="M74 700h155l276 -448v448h154v-700h-155l-276 448v-448h-154v700zM540 898q-8 -61 -35.5 -92.5t-71.5 -31.5q-20 0 -37.5 7t-32.5 16t-27.5 16t-23.5 7q-12 0 -21 -10.5t-11 -31.5l-87 11q8 61 35.5 92.5t71.5 31.5q20 0 37.5 -7t32.5 -16t27.5 -16t23.5 -7q12 0 21 10.5
t11 31.5z" />
    <glyph glyph-name="Ograve" unicode="&#xd2;" horiz-adv-x="744" 
d="M703 350q0 -77 -22.5 -143.5t-65.5 -115t-104 -76t-139 -27.5t-139 27.5t-104 76t-65.5 115t-22.5 143.5t22.5 143.5t65.5 115t104 76t139 27.5t139 -27.5t104 -76t65.5 -115t22.5 -143.5zM202 350q0 -53 12 -95.5t34 -72t53.5 -45.5t70.5 -16t70.5 16t53.5 45.5t34 72
t12 95.5t-12 95.5t-34 72t-53.5 45.5t-70.5 16t-70.5 -16t-53.5 -45.5t-34 -72t-12 -95.5zM232 869l72 76l148 -136l-53 -62z" />
    <glyph glyph-name="Oacute" unicode="&#xd3;" horiz-adv-x="744" 
d="M703 350q0 -77 -22.5 -143.5t-65.5 -115t-104 -76t-139 -27.5t-139 27.5t-104 76t-65.5 115t-22.5 143.5t22.5 143.5t65.5 115t104 76t139 27.5t139 -27.5t104 -76t65.5 -115t22.5 -143.5zM202 350q0 -53 12 -95.5t34 -72t53.5 -45.5t70.5 -16t70.5 16t53.5 45.5t34 72
t12 95.5t-12 95.5t-34 72t-53.5 45.5t-70.5 16t-70.5 -16t-53.5 -45.5t-34 -72t-12 -95.5zM345 747l-53 62l148 136l72 -76z" />
    <glyph glyph-name="Ocircumflex" unicode="&#xd4;" horiz-adv-x="744" 
d="M703 350q0 -77 -22.5 -143.5t-65.5 -115t-104 -76t-139 -27.5t-139 27.5t-104 76t-65.5 115t-22.5 143.5t22.5 143.5t65.5 115t104 76t139 27.5t139 -27.5t104 -76t65.5 -115t22.5 -143.5zM202 350q0 -53 12 -95.5t34 -72t53.5 -45.5t70.5 -16t70.5 16t53.5 45.5t34 72
t12 95.5t-12 95.5t-34 72t-53.5 45.5t-70.5 16t-70.5 -16t-53.5 -45.5t-34 -72t-12 -95.5zM410 930l130 -134l-61 -49l-107 91l-107 -91l-61 49l130 134h76z" />
    <glyph glyph-name="Otilde" unicode="&#xd5;" horiz-adv-x="744" 
d="M703 350q0 -77 -22.5 -143.5t-65.5 -115t-104 -76t-139 -27.5t-139 27.5t-104 76t-65.5 115t-22.5 143.5t22.5 143.5t65.5 115t104 76t139 27.5t139 -27.5t104 -76t65.5 -115t22.5 -143.5zM202 350q0 -53 12 -95.5t34 -72t53.5 -45.5t70.5 -16t70.5 16t53.5 45.5t34 72
t12 95.5t-12 95.5t-34 72t-53.5 45.5t-70.5 16t-70.5 -16t-53.5 -45.5t-34 -72t-12 -95.5zM546 898q-8 -61 -35.5 -92.5t-71.5 -31.5q-20 0 -37.5 7t-32.5 16t-27.5 16t-23.5 7q-12 0 -21 -10.5t-11 -31.5l-87 11q8 61 35.5 92.5t71.5 31.5q20 0 37.5 -7t32.5 -16t27.5 -16
t23.5 -7q12 0 21 10.5t11 31.5z" />
    <glyph glyph-name="Odieresis" unicode="&#xd6;" horiz-adv-x="744" 
d="M703 350q0 -77 -22.5 -143.5t-65.5 -115t-104 -76t-139 -27.5t-139 27.5t-104 76t-65.5 115t-22.5 143.5t22.5 143.5t65.5 115t104 76t139 27.5t139 -27.5t104 -76t65.5 -115t22.5 -143.5zM202 350q0 -53 12 -95.5t34 -72t53.5 -45.5t70.5 -16t70.5 16t53.5 45.5t34 72
t12 95.5t-12 95.5t-34 72t-53.5 45.5t-70.5 16t-70.5 -16t-53.5 -45.5t-34 -72t-12 -95.5zM408 840q0 29 19.5 48.5t48.5 19.5t48.5 -19.5t19.5 -48.5t-19.5 -48.5t-48.5 -19.5t-48.5 19.5t-19.5 48.5zM201 840q0 29 19.5 48.5t48.5 19.5t48.5 -19.5t19.5 -48.5t-19.5 -48.5
t-48.5 -19.5t-48.5 19.5t-19.5 48.5z" />
    <glyph glyph-name="multiply" unicode="&#xd7;" horiz-adv-x="616" 
d="M541 185l-86 -86l-147 147l-147 -147l-86 86l147 147l-147 147l86 86l147 -147l147 147l86 -86l-147 -147z" />
    <glyph glyph-name="Oslash" unicode="&#xd8;" horiz-adv-x="744" 
d="M703 350q0 -77 -22.5 -143.5t-65.5 -115t-104 -76t-139 -27.5q-56 0 -103 14.5t-85 40.5l-61 -82l-56 40l65 87q-45 49 -68 116t-23 146q0 77 22.5 143.5t65.5 115t104 76t139 27.5q55 0 102 -14.5t85 -40.5l62 82l56 -40l-66 -87q45 -49 68.5 -116t23.5 -146zM542 350
q0 39 -7 73t-20 61l-244 -326q42 -37 101 -37q39 0 70.5 16t53.5 45.5t34 72t12 95.5zM202 350q0 -79 26 -134l245 326q-42 37 -101 37q-39 0 -70.5 -16t-53.5 -45.5t-34 -72t-12 -95.5z" />
    <glyph glyph-name="Ugrave" unicode="&#xd9;" horiz-adv-x="748" 
d="M374 -12q-67 0 -122 19t-94.5 56t-61.5 92t-22 128v417h159v-421q0 -78 34.5 -118t106.5 -40t106.5 40t34.5 118v421h159v-417q0 -73 -21.5 -128t-60.5 -92t-94.5 -56t-123.5 -19zM220 869l72 76l148 -136l-53 -62z" />
    <glyph glyph-name="Uacute" unicode="&#xda;" horiz-adv-x="748" 
d="M374 -12q-67 0 -122 19t-94.5 56t-61.5 92t-22 128v417h159v-421q0 -78 34.5 -118t106.5 -40t106.5 40t34.5 118v421h159v-417q0 -73 -21.5 -128t-60.5 -92t-94.5 -56t-123.5 -19zM361 747l-53 62l148 136l72 -76z" />
    <glyph glyph-name="Ucircumflex" unicode="&#xdb;" horiz-adv-x="748" 
d="M374 -12q-67 0 -122 19t-94.5 56t-61.5 92t-22 128v417h159v-421q0 -78 34.5 -118t106.5 -40t106.5 40t34.5 118v421h159v-417q0 -73 -21.5 -128t-60.5 -92t-94.5 -56t-123.5 -19zM412 930l130 -134l-61 -49l-107 91l-107 -91l-61 49l130 134h76z" />
    <glyph glyph-name="Udieresis" unicode="&#xdc;" horiz-adv-x="748" 
d="M374 -12q-67 0 -122 19t-94.5 56t-61.5 92t-22 128v417h159v-421q0 -78 34.5 -118t106.5 -40t106.5 40t34.5 118v421h159v-417q0 -73 -21.5 -128t-60.5 -92t-94.5 -56t-123.5 -19zM410 840q0 29 19.5 48.5t48.5 19.5t48.5 -19.5t19.5 -48.5t-19.5 -48.5t-48.5 -19.5
t-48.5 19.5t-19.5 48.5zM203 840q0 29 19.5 48.5t48.5 19.5t48.5 -19.5t19.5 -48.5t-19.5 -48.5t-48.5 -19.5t-48.5 19.5t-19.5 48.5z" />
    <glyph glyph-name="Yacute" unicode="&#xdd;" horiz-adv-x="662" 
d="M648 700l-237 -425v-275h-160v275l-237 425h171l146 -287l146 287h171zM322 747l-53 62l148 136l72 -76z" />
    <glyph glyph-name="Thorn" unicode="&#xde;" horiz-adv-x="634" 
d="M602 355q0 -58 -20.5 -101t-57 -72t-88.5 -43.5t-115 -14.5h-88v-124h-159v700h159v-115h88q63 0 115 -14.5t88.5 -43t57 -72t20.5 -100.5zM441 355q0 54 -32 76.5t-95 22.5h-81v-199h81q63 0 95 23t32 77z" />
    <glyph glyph-name="germandbls" unicode="&#xdf;" horiz-adv-x="623" 
d="M295 427q38 0 59.5 22t21.5 60q0 33 -19 54.5t-54 21.5q-40 0 -57.5 -26t-17.5 -74v-485h-159v473q0 116 61 177.5t175 61.5q52 0 95 -15t73 -41t46.5 -60t16.5 -73q0 -54 -26.5 -95t-77.5 -61q73 -17 118 -63.5t45 -124.5q0 -91 -54.5 -141t-148.5 -50q-38 0 -77 9.5
t-68 26.5l46 108q13 -8 29.5 -13t33.5 -5q36 0 57 20.5t21 59.5q0 51 -37.5 81t-101.5 30v122z" />
    <glyph glyph-name="agrave" unicode="&#xe0;" horiz-adv-x="580" 
d="M372 315q0 47 -24.5 71.5t-81.5 24.5q-33 0 -64 -11.5t-54 -30.5l-84 81q42 37 101 58.5t122 21.5q64 0 108.5 -16t72 -45.5t40 -70.5t12.5 -91v-307h-148v37q-27 -24 -62.5 -36.5t-82.5 -12.5q-39 0 -74 11t-61 32.5t-41.5 53t-15.5 71.5t15.5 71.5t41.5 53t61 32.5
t74 11q47 0 82.5 -12.5t62.5 -36.5v40zM372 176q-20 20 -47 29.5t-57 9.5q-38 0 -58.5 -15.5t-20.5 -43.5t20.5 -43.5t58.5 -15.5q30 0 57 9.5t47 29.5v40zM151 695l72 76l148 -136l-53 -62z" />
    <glyph glyph-name="aacute" unicode="&#xe1;" horiz-adv-x="580" 
d="M372 315q0 47 -24.5 71.5t-81.5 24.5q-33 0 -64 -11.5t-54 -30.5l-84 81q42 37 101 58.5t122 21.5q64 0 108.5 -16t72 -45.5t40 -70.5t12.5 -91v-307h-148v37q-27 -24 -62.5 -36.5t-82.5 -12.5q-39 0 -74 11t-61 32.5t-41.5 53t-15.5 71.5t15.5 71.5t41.5 53t61 32.5
t74 11q47 0 82.5 -12.5t62.5 -36.5v40zM372 176q-20 20 -47 29.5t-57 9.5q-38 0 -58.5 -15.5t-20.5 -43.5t20.5 -43.5t58.5 -15.5q30 0 57 9.5t47 29.5v40zM264 573l-53 62l148 136l72 -76z" />
    <glyph glyph-name="acircumflex" unicode="&#xe2;" horiz-adv-x="580" 
d="M372 315q0 47 -24.5 71.5t-81.5 24.5q-33 0 -64 -11.5t-54 -30.5l-84 81q42 37 101 58.5t122 21.5q64 0 108.5 -16t72 -45.5t40 -70.5t12.5 -91v-307h-148v37q-27 -24 -62.5 -36.5t-82.5 -12.5q-39 0 -74 11t-61 32.5t-41.5 53t-15.5 71.5t15.5 71.5t41.5 53t61 32.5
t74 11q47 0 82.5 -12.5t62.5 -36.5v40zM372 176q-20 20 -47 29.5t-57 9.5q-38 0 -58.5 -15.5t-20.5 -43.5t20.5 -43.5t58.5 -15.5q30 0 57 9.5t47 29.5v40zM332 756l130 -134l-61 -49l-107 91l-107 -91l-61 49l130 134h76z" />
    <glyph glyph-name="atilde" unicode="&#xe3;" horiz-adv-x="580" 
d="M372 315q0 47 -24.5 71.5t-81.5 24.5q-33 0 -64 -11.5t-54 -30.5l-84 81q42 37 101 58.5t122 21.5q64 0 108.5 -16t72 -45.5t40 -70.5t12.5 -91v-307h-148v37q-27 -24 -62.5 -36.5t-82.5 -12.5q-39 0 -74 11t-61 32.5t-41.5 53t-15.5 71.5t15.5 71.5t41.5 53t61 32.5
t74 11q47 0 82.5 -12.5t62.5 -36.5v40zM372 176q-20 20 -47 29.5t-57 9.5q-38 0 -58.5 -15.5t-20.5 -43.5t20.5 -43.5t58.5 -15.5q30 0 57 9.5t47 29.5v40zM465 724q-8 -61 -35.5 -92.5t-71.5 -31.5q-20 0 -37.5 7t-32.5 16t-27.5 16t-23.5 7q-12 0 -21 -10.5t-11 -31.5
l-87 11q8 61 35.5 92.5t71.5 31.5q20 0 37.5 -7t32.5 -16t27.5 -16t23.5 -7q12 0 21 10.5t11 31.5z" />
    <glyph glyph-name="adieresis" unicode="&#xe4;" horiz-adv-x="580" 
d="M372 315q0 47 -24.5 71.5t-81.5 24.5q-33 0 -64 -11.5t-54 -30.5l-84 81q42 37 101 58.5t122 21.5q64 0 108.5 -16t72 -45.5t40 -70.5t12.5 -91v-307h-148v37q-27 -24 -62.5 -36.5t-82.5 -12.5q-39 0 -74 11t-61 32.5t-41.5 53t-15.5 71.5t15.5 71.5t41.5 53t61 32.5
t74 11q47 0 82.5 -12.5t62.5 -36.5v40zM372 176q-20 20 -47 29.5t-57 9.5q-38 0 -58.5 -15.5t-20.5 -43.5t20.5 -43.5t58.5 -15.5q30 0 57 9.5t47 29.5v40zM333 666q0 29 19.5 48.5t48.5 19.5t48.5 -19.5t19.5 -48.5t-19.5 -48.5t-48.5 -19.5t-48.5 19.5t-19.5 48.5z
M126 666q0 29 19.5 48.5t48.5 19.5t48.5 -19.5t19.5 -48.5t-19.5 -48.5t-48.5 -19.5t-48.5 19.5t-19.5 48.5z" />
    <glyph glyph-name="aring" unicode="&#xe5;" horiz-adv-x="580" 
d="M372 315q0 47 -24.5 71.5t-81.5 24.5q-33 0 -64 -11.5t-54 -30.5l-84 81q42 37 101 58.5t122 21.5q64 0 108.5 -16t72 -45.5t40 -70.5t12.5 -91v-307h-148v37q-27 -24 -62.5 -36.5t-82.5 -12.5q-39 0 -74 11t-61 32.5t-41.5 53t-15.5 71.5t15.5 71.5t41.5 53t61 32.5
t74 11q47 0 82.5 -12.5t62.5 -36.5v40zM372 176q-20 20 -47 29.5t-57 9.5q-38 0 -58.5 -15.5t-20.5 -43.5t20.5 -43.5t58.5 -15.5q30 0 57 9.5t47 29.5v40zM257 670q0 -17 10.5 -28t27.5 -11t27.5 11t10.5 28t-10.5 28t-27.5 11t-27.5 -11t-10.5 -28zM180 670q0 23 9 43
t24.5 35t36.5 23.5t45 8.5t45 -8.5t36.5 -23.5t24.5 -35t9 -43t-9 -43t-24.5 -35t-36.5 -23.5t-45 -8.5t-45 8.5t-36.5 23.5t-24.5 35t-9 43z" />
    <glyph glyph-name="ae" unicode="&#xe6;" horiz-adv-x="925" 
d="M888 257v-24t-2 -23h-365q8 -49 42 -76t88 -27q37 0 64.5 16t47.5 44l105 -73q-39 -52 -95.5 -79t-127.5 -27q-66 0 -116.5 20.5t-85.5 57.5q-38 -38 -88.5 -58t-119.5 -20q-42 0 -78.5 11t-63.5 32.5t-42.5 53t-15.5 71.5t15.5 71.5t41.5 53t61 32.5t74 11
q42 0 79.5 -11t64.5 -30q0 10 1 14v18q0 47 -24.5 71.5t-81.5 24.5q-33 0 -64 -11.5t-54 -30.5l-84 81q42 37 101 58.5t122 21.5q59 0 104.5 -18t71.5 -53q25 32 69 51.5t98 19.5q58 0 105.5 -20t81.5 -56t52.5 -86.5t18.5 -110.5zM268 97q74 0 123 46q-8 18 -12 36
q-25 17 -52 26.5t-59 9.5q-38 0 -58.5 -15.5t-20.5 -43.5t20.5 -43.5t58.5 -15.5zM630 411q-46 0 -74.5 -25t-35.5 -73h218q-5 46 -34 72t-74 26z" />
    <glyph glyph-name="ccedilla" unicode="&#xe7;" horiz-adv-x="558" 
d="M274 -161q20 0 31.5 8t11.5 23q0 17 -20.5 28.5t-60.5 12.5l-8 11l32 69q-52 6 -93 28t-70 57.5t-44.5 82t-15.5 100.5q0 59 18.5 109t52.5 86t82.5 56t108.5 20q81 0 141.5 -35t95.5 -95l-117 -57q-20 32 -46 50t-64 18q-58 0 -88 -41t-30 -111t30 -111t88 -41
q38 0 64 18t46 50l117 -57q-28 -48 -71.5 -79.5t-100.5 -43.5l-21 -43q35 -9 56 -33t21 -58q0 -39 -32.5 -69t-99.5 -30q-34 0 -63.5 10t-50.5 27l49 59q21 -19 51 -19z" />
    <glyph glyph-name="egrave" unicode="&#xe8;" horiz-adv-x="592" 
d="M555 257v-24t-2 -23h-365q8 -49 42 -76t88 -27q37 0 64.5 16t47.5 44l105 -73q-39 -52 -95.5 -79t-127.5 -27q-64 0 -115 20t-86.5 56t-54.5 86t-19 109t18.5 109t53 86t82 56t106.5 20q58 0 105.5 -20t81.5 -56t52.5 -86.5t18.5 -110.5zM297 411q-46 0 -74.5 -25
t-35.5 -73h218q-5 46 -34 72t-74 26zM165 695l72 76l148 -136l-53 -62z" />
    <glyph glyph-name="eacute" unicode="&#xe9;" horiz-adv-x="592" 
d="M555 257v-24t-2 -23h-365q8 -49 42 -76t88 -27q37 0 64.5 16t47.5 44l105 -73q-39 -52 -95.5 -79t-127.5 -27q-64 0 -115 20t-86.5 56t-54.5 86t-19 109t18.5 109t53 86t82 56t106.5 20q58 0 105.5 -20t81.5 -56t52.5 -86.5t18.5 -110.5zM297 411q-46 0 -74.5 -25
t-35.5 -73h218q-5 46 -34 72t-74 26zM270 573l-53 62l148 136l72 -76z" />
    <glyph glyph-name="ecircumflex" unicode="&#xea;" horiz-adv-x="592" 
d="M555 257v-24t-2 -23h-365q8 -49 42 -76t88 -27q37 0 64.5 16t47.5 44l105 -73q-39 -52 -95.5 -79t-127.5 -27q-64 0 -115 20t-86.5 56t-54.5 86t-19 109t18.5 109t53 86t82 56t106.5 20q58 0 105.5 -20t81.5 -56t52.5 -86.5t18.5 -110.5zM297 411q-46 0 -74.5 -25
t-35.5 -73h218q-5 46 -34 72t-74 26zM330 756l130 -134l-61 -49l-107 91l-107 -91l-61 49l130 134h76z" />
    <glyph glyph-name="edieresis" unicode="&#xeb;" horiz-adv-x="592" 
d="M555 257v-24t-2 -23h-365q8 -49 42 -76t88 -27q37 0 64.5 16t47.5 44l105 -73q-39 -52 -95.5 -79t-127.5 -27q-64 0 -115 20t-86.5 56t-54.5 86t-19 109t18.5 109t53 86t82 56t106.5 20q58 0 105.5 -20t81.5 -56t52.5 -86.5t18.5 -110.5zM297 411q-46 0 -74.5 -25
t-35.5 -73h218q-5 46 -34 72t-74 26zM327 666q0 29 19.5 48.5t48.5 19.5t48.5 -19.5t19.5 -48.5t-19.5 -48.5t-48.5 -19.5t-48.5 19.5t-19.5 48.5zM120 666q0 29 19.5 48.5t48.5 19.5t48.5 -19.5t19.5 -48.5t-19.5 -48.5t-48.5 -19.5t-48.5 19.5t-19.5 48.5z" />
    <glyph glyph-name="igrave" unicode="&#xec;" horiz-adv-x="292" 
d="M70 518h152v-518h-152v518zM-13 695l72 76l148 -136l-53 -62z" />
    <glyph glyph-name="iacute" unicode="&#xed;" horiz-adv-x="292" 
d="M70 518h152v-518h-152v518zM138 573l-53 62l148 136l72 -76z" />
    <glyph glyph-name="icircumflex" unicode="&#xee;" horiz-adv-x="292" 
d="M70 518h152v-518h-152v518zM184 756l130 -134l-61 -49l-107 91l-107 -91l-61 49l130 134h76z" />
    <glyph glyph-name="idieresis" unicode="&#xef;" horiz-adv-x="292" 
d="M70 518h152v-518h-152v518zM182 666q0 29 19.5 48.5t48.5 19.5t48.5 -19.5t19.5 -48.5t-19.5 -48.5t-48.5 -19.5t-48.5 19.5t-19.5 48.5zM-25 666q0 29 19.5 48.5t48.5 19.5t48.5 -19.5t19.5 -48.5t-19.5 -48.5t-48.5 -19.5t-48.5 19.5t-19.5 48.5z" />
    <glyph glyph-name="eth" unicode="&#xf0;" horiz-adv-x="591" 
d="M255 607q-20 8 -43 13t-47 9v101q63 -6 120 -23t105 -48l119 46l26 -64l-85 -33q47 -49 73.5 -120t26.5 -170q0 -76 -17 -137t-50.5 -104t-82.5 -66t-113 -23q-55 0 -100.5 17.5t-77.5 50.5t-50 80.5t-18 106.5q0 60 16 106t45 77t69 47t87 16q38 0 74 -13.5t62 -36.5
q-6 41 -22.5 71t-40.5 52l-132 -50l-26 63zM292 370q-48 0 -75.5 -33.5t-27.5 -95.5t27.5 -98t74.5 -36q54 0 84 49.5t30 163.5q-23 25 -52 37.5t-61 12.5z" />
    <glyph glyph-name="ntilde" unicode="&#xf1;" 
d="M333 411q-35 0 -66.5 -17t-50.5 -40v-354h-152v518h152v-58q28 29 72 49.5t98 20.5q81 0 131 -50t50 -148v-332h-152v316q0 46 -20 70.5t-62 24.5zM488 724q-8 -61 -35.5 -92.5t-71.5 -31.5q-20 0 -37.5 7t-32.5 16t-27.5 16t-23.5 7q-12 0 -21 -10.5t-11 -31.5l-87 11
q8 61 35.5 92.5t71.5 31.5q20 0 37.5 -7t32.5 -16t27.5 -16t23.5 -7q12 0 21 10.5t11 31.5z" />
    <glyph glyph-name="ograve" unicode="&#xf2;" horiz-adv-x="604" 
d="M567 259q0 -60 -19 -109.5t-53.5 -85.5t-83.5 -56t-109 -20t-109 20t-83.5 56t-53.5 85.5t-19 109.5t19 109.5t53.5 85.5t83.5 56t109 20t109 -20t83.5 -56t53.5 -85.5t19 -109.5zM413 259q0 73 -29 112.5t-82 39.5t-82 -39.5t-29 -112.5t29 -112.5t82 -39.5t82 39.5
t29 112.5zM165 695l72 76l148 -136l-53 -62z" />
    <glyph glyph-name="oacute" unicode="&#xf3;" horiz-adv-x="604" 
d="M567 259q0 -60 -19 -109.5t-53.5 -85.5t-83.5 -56t-109 -20t-109 20t-83.5 56t-53.5 85.5t-19 109.5t19 109.5t53.5 85.5t83.5 56t109 20t109 -20t83.5 -56t53.5 -85.5t19 -109.5zM413 259q0 73 -29 112.5t-82 39.5t-82 -39.5t-29 -112.5t29 -112.5t82 -39.5t82 39.5
t29 112.5zM272 573l-53 62l148 136l72 -76z" />
    <glyph glyph-name="ocircumflex" unicode="&#xf4;" horiz-adv-x="604" 
d="M567 259q0 -60 -19 -109.5t-53.5 -85.5t-83.5 -56t-109 -20t-109 20t-83.5 56t-53.5 85.5t-19 109.5t19 109.5t53.5 85.5t83.5 56t109 20t109 -20t83.5 -56t53.5 -85.5t19 -109.5zM413 259q0 73 -29 112.5t-82 39.5t-82 -39.5t-29 -112.5t29 -112.5t82 -39.5t82 39.5
t29 112.5zM340 756l130 -134l-61 -49l-107 91l-107 -91l-61 49l130 134h76z" />
    <glyph glyph-name="otilde" unicode="&#xf5;" horiz-adv-x="604" 
d="M567 259q0 -60 -19 -109.5t-53.5 -85.5t-83.5 -56t-109 -20t-109 20t-83.5 56t-53.5 85.5t-19 109.5t19 109.5t53.5 85.5t83.5 56t109 20t109 -20t83.5 -56t53.5 -85.5t19 -109.5zM413 259q0 73 -29 112.5t-82 39.5t-82 -39.5t-29 -112.5t29 -112.5t82 -39.5t82 39.5
t29 112.5zM476 724q-8 -61 -35.5 -92.5t-71.5 -31.5q-20 0 -37.5 7t-32.5 16t-27.5 16t-23.5 7q-12 0 -21 -10.5t-11 -31.5l-87 11q8 61 35.5 92.5t71.5 31.5q20 0 37.5 -7t32.5 -16t27.5 -16t23.5 -7q12 0 21 10.5t11 31.5z" />
    <glyph glyph-name="odieresis" unicode="&#xf6;" horiz-adv-x="604" 
d="M567 259q0 -60 -19 -109.5t-53.5 -85.5t-83.5 -56t-109 -20t-109 20t-83.5 56t-53.5 85.5t-19 109.5t19 109.5t53.5 85.5t83.5 56t109 20t109 -20t83.5 -56t53.5 -85.5t19 -109.5zM413 259q0 73 -29 112.5t-82 39.5t-82 -39.5t-29 -112.5t29 -112.5t82 -39.5t82 39.5
t29 112.5zM338 666q0 29 19.5 48.5t48.5 19.5t48.5 -19.5t19.5 -48.5t-19.5 -48.5t-48.5 -19.5t-48.5 19.5t-19.5 48.5zM131 666q0 29 19.5 48.5t48.5 19.5t48.5 -19.5t19.5 -48.5t-19.5 -48.5t-48.5 -19.5t-48.5 19.5t-19.5 48.5z" />
    <glyph glyph-name="divide" unicode="&#xf7;" horiz-adv-x="616" 
d="M55 278v107h506v-107h-506zM384 534q0 -32 -22 -54t-54 -22t-54 22t-22 54t22 54t54 22t54 -22t22 -54zM384 129q0 -32 -22 -54t-54 -22t-54 22t-22 54t22 54t54 22t54 -22t22 -54z" />
    <glyph glyph-name="oslash" unicode="&#xf8;" horiz-adv-x="604" 
d="M110 63q-35 36 -54 86t-19 110t19 109.5t53.5 85.5t83.5 56t109 20q39 0 73.5 -9t63.5 -25l49 64l56 -40l-50 -66q35 -36 54 -85.5t19 -109.5t-19 -109.5t-53.5 -85.5t-83.5 -56t-109 -20q-78 0 -138 34l-48 -64l-56 40zM413 259q0 42 -11 75l-160 -210q26 -17 60 -17
q53 0 82 39.5t29 112.5zM191 259q0 -46 10 -76l160 210q-24 18 -59 18q-53 0 -82 -39.5t-29 -112.5z" />
    <glyph glyph-name="ugrave" unicode="&#xf9;" horiz-adv-x="622" 
d="M311 -12q-116 0 -183.5 59.5t-67.5 177.5v293h152v-302q0 -55 28 -82t71 -27t71 27t28 82v302h152v-293q0 -118 -67.5 -177.5t-183.5 -59.5zM167 695l72 76l148 -136l-53 -62z" />
    <glyph glyph-name="uacute" unicode="&#xfa;" horiz-adv-x="622" 
d="M311 -12q-116 0 -183.5 59.5t-67.5 177.5v293h152v-302q0 -55 28 -82t71 -27t71 27t28 82v302h152v-293q0 -118 -67.5 -177.5t-183.5 -59.5zM286 573l-53 62l148 136l72 -76z" />
    <glyph glyph-name="ucircumflex" unicode="&#xfb;" horiz-adv-x="622" 
d="M311 -12q-116 0 -183.5 59.5t-67.5 177.5v293h152v-302q0 -55 28 -82t71 -27t71 27t28 82v302h152v-293q0 -118 -67.5 -177.5t-183.5 -59.5zM349 756l130 -134l-61 -49l-107 91l-107 -91l-61 49l130 134h76z" />
    <glyph glyph-name="udieresis" unicode="&#xfc;" horiz-adv-x="622" 
d="M311 -12q-116 0 -183.5 59.5t-67.5 177.5v293h152v-302q0 -55 28 -82t71 -27t71 27t28 82v302h152v-293q0 -118 -67.5 -177.5t-183.5 -59.5zM347 666q0 29 19.5 48.5t48.5 19.5t48.5 -19.5t19.5 -48.5t-19.5 -48.5t-48.5 -19.5t-48.5 19.5t-19.5 48.5zM140 666
q0 29 19.5 48.5t48.5 19.5t48.5 -19.5t19.5 -48.5t-19.5 -48.5t-48.5 -19.5t-48.5 19.5t-19.5 48.5z" />
    <glyph glyph-name="yacute" unicode="&#xfd;" horiz-adv-x="575" 
d="M139 -212l81 221l-206 509h154l123 -328l117 328h153l-270 -730h-152zM263 573l-53 62l148 136l72 -76z" />
    <glyph glyph-name="thorn" unicode="&#xfe;" horiz-adv-x="632" 
d="M590 259q0 -64 -15.5 -114.5t-44.5 -85t-70 -53t-92 -18.5q-44 0 -83 16t-69 44v-260h-152v942h152v-260q30 28 69 44t83 16q51 0 92 -18.5t70 -53t44.5 -85t15.5 -114.5zM321 411q-27 0 -56 -12t-49 -33v-214q20 -21 49 -33t56 -12q58 0 86.5 39.5t28.5 112.5
t-28.5 112.5t-86.5 39.5z" />
    <glyph glyph-name="ydieresis" unicode="&#xff;" horiz-adv-x="575" 
d="M139 -212l81 221l-206 509h154l123 -328l117 328h153l-270 -730h-152zM327 666q0 29 19.5 48.5t48.5 19.5t48.5 -19.5t19.5 -48.5t-19.5 -48.5t-48.5 -19.5t-48.5 19.5t-19.5 48.5zM120 666q0 29 19.5 48.5t48.5 19.5t48.5 -19.5t19.5 -48.5t-19.5 -48.5t-48.5 -19.5
t-48.5 19.5t-19.5 48.5z" />
    <glyph glyph-name="dotlessi" unicode="&#x131;" horiz-adv-x="292" 
d="M70 518h152v-518h-152v518z" />
    <glyph glyph-name="OE" unicode="&#x152;" horiz-adv-x="888" 
d="M838 700v-127h-257v-150h222v-127h-222v-169h266v-127h-477q-78 0 -139 25t-103 71t-64.5 110.5t-22.5 143.5t22.5 143.5t64.5 110.5t103 71t139 25h468zM202 350q0 -110 50 -164t128 -54h41v436h-41q-78 0 -128 -54.5t-50 -163.5z" />
    <glyph glyph-name="oe" unicode="&#x153;" horiz-adv-x="973" 
d="M693 -12q-132 0 -201 86q-34 -43 -84 -64.5t-110 -21.5q-58 0 -106 20t-82.5 56t-53.5 85.5t-19 109.5t19 109.5t53 85.5t82 56t107 20q60 0 109.5 -21t84.5 -63q69 84 190 84q56 0 103 -20t80.5 -56t52 -86.5t18.5 -110.5v-24t-2 -23h-365q8 -49 42 -76t88 -27
q37 0 64.5 16t47.5 44l105 -73q-39 -52 -95.5 -79t-127.5 -27zM678 411q-46 0 -74.5 -25t-35.5 -73h218q-5 46 -34 72t-74 26zM413 259q0 73 -29 112.5t-82 39.5t-82 -39.5t-29 -112.5t29 -112.5t82 -39.5t82 39.5t29 112.5z" />
    <glyph glyph-name="Scaron" unicode="&#x160;" horiz-adv-x="623" 
d="M316 116q51 0 79 19.5t28 51.5q0 18 -5.5 32t-21.5 26.5t-46 25t-79 26.5q-111 32 -160.5 86.5t-49.5 130.5q0 43 16 79.5t46.5 63t75 41t101.5 14.5q77 0 143.5 -28.5t113.5 -84.5l-107 -79q-26 30 -61 47t-74 17q-48 0 -70.5 -17.5t-22.5 -46.5q0 -16 6.5 -29t22 -25
t42 -24t67.5 -24q57 -17 99 -37t70 -46t41.5 -59.5t13.5 -77.5q0 -47 -18.5 -86t-52 -66.5t-81.5 -42.5t-108 -15q-91 0 -165 32t-128 93l114 84q32 -36 75.5 -58.5t95.5 -22.5zM262 759l-130 134l61 49l107 -91l107 91l61 -49l-130 -134h-76z" />
    <glyph glyph-name="scaron" unicode="&#x161;" horiz-adv-x="527" 
d="M55 380q0 32 13.5 59.5t39 47.5t62.5 31.5t85 11.5q66 0 123 -22t98 -64l-93 -72q-18 20 -46.5 33t-59.5 13t-49.5 -8.5t-18.5 -25.5q0 -9 5 -17t18.5 -16t36.5 -17t58 -19q78 -24 120 -64.5t42 -103.5q0 -69 -53.5 -114t-158.5 -45q-77 0 -141 25.5t-109 76.5l100 74
q27 -28 61 -46t75 -18q72 0 72 40q0 10 -4.5 19t-16.5 17t-32 16t-50 17q-95 29 -136 69.5t-41 101.5zM220 585l-130 134l61 49l107 -91l107 91l61 -49l-130 -134h-76z" />
    <glyph glyph-name="Ydieresis" unicode="&#x178;" horiz-adv-x="662" 
d="M648 700l-237 -425v-275h-160v275l-237 425h171l146 -287l146 287h171zM367 840q0 29 19.5 48.5t48.5 19.5t48.5 -19.5t19.5 -48.5t-19.5 -48.5t-48.5 -19.5t-48.5 19.5t-19.5 48.5zM160 840q0 29 19.5 48.5t48.5 19.5t48.5 -19.5t19.5 -48.5t-19.5 -48.5t-48.5 -19.5
t-48.5 19.5t-19.5 48.5z" />
    <glyph glyph-name="Zcaron" unicode="&#x17d;" horiz-adv-x="596" 
d="M32 125l328 444h-310v131h504v-125l-328 -444h338v-131h-532v125zM268 759l-130 134l61 49l107 -91l107 91l61 -49l-130 -134h-76z" />
    <glyph glyph-name="zcaron" unicode="&#x17e;" horiz-adv-x="484" 
d="M23 112l244 290h-230v116h414v-112l-244 -290h254v-116h-438v112zM209 585l-130 134l61 49l107 -91l107 91l61 -49l-130 -134h-76z" />
    <glyph glyph-name="florin" unicode="&#x192;" horiz-adv-x="401" 
d="M58 -224q-23 0 -45 1t-43 3v112q14 -1 28.5 -1.5t26.5 -0.5q45 0 61.5 16.5t16.5 51.5v443h-89v117h89v36q0 91 47.5 133.5t149.5 42.5q23 0 45 -1t43 -3v-112q-14 1 -28.5 1.5t-26.5 0.5q-45 0 -61.5 -16.5t-16.5 -51.5v-30h123v-117h-123v-449q0 -91 -47.5 -133.5
t-149.5 -42.5z" />
    <glyph glyph-name="uni0237" unicode="&#x237;" horiz-adv-x="292" 
d="M5 -223q-14 0 -30 0.5t-27 2.5v117q11 -1 22 -1h22q43 0 60.5 20t17.5 62v540h152v-509q0 -59 -10 -103t-34.5 -72.5t-66.5 -42.5t-106 -14z" />
    <glyph glyph-name="circumflex" unicode="&#x2c6;" horiz-adv-x="390" 
d="M233 736l130 -134l-61 -49l-107 91l-107 -91l-61 49l130 134h76z" />
    <glyph glyph-name="ring" unicode="&#x2da;" horiz-adv-x="390" 
d="M157 650q0 -17 10.5 -28t27.5 -11t27.5 11t10.5 28t-10.5 28t-27.5 11t-27.5 -11t-10.5 -28zM80 650q0 23 9 43t24.5 35t36.5 23.5t45 8.5t45 -8.5t36.5 -23.5t24.5 -35t9 -43t-9 -43t-24.5 -35t-36.5 -23.5t-45 -8.5t-45 8.5t-36.5 23.5t-24.5 35t-9 43z" />
    <glyph glyph-name="tilde" unicode="&#x2dc;" horiz-adv-x="390" 
d="M368 705q-8 -61 -35.5 -92.5t-71.5 -31.5q-20 0 -37.5 7t-32.5 16t-27.5 16t-23.5 7q-12 0 -21 -10.5t-11 -31.5l-87 11q8 61 35.5 92.5t71.5 31.5q20 0 37.5 -7t32.5 -16t27.5 -16t23.5 -7q12 0 21 10.5t11 31.5z" />
    <glyph glyph-name="endash" unicode="&#x2013;" horiz-adv-x="500" 
d="M0 278v107h500v-107h-500z" />
    <glyph glyph-name="emdash" unicode="&#x2014;" horiz-adv-x="1000" 
d="M0 278v107h1000v-107h-1000z" />
    <glyph glyph-name="quoteleft" unicode="&#x2018;" horiz-adv-x="314" 
d="M198 466l-126 42l113 279l96 -30z" />
    <glyph glyph-name="quoteright" unicode="&#x2019;" horiz-adv-x="314" 
d="M120 787l126 -42l-113 -279l-96 30z" />
    <glyph glyph-name="quotesinglbase" unicode="&#x201a;" horiz-adv-x="314" 
d="M120 162l126 -42l-113 -279l-96 30z" />
    <glyph glyph-name="quotedblleft" unicode="&#x201c;" horiz-adv-x="512" 
d="M396 466l-126 42l113 279l96 -30zM198 466l-126 42l113 279l96 -30z" />
    <glyph glyph-name="quotedblright" unicode="&#x201d;" horiz-adv-x="512" 
d="M318 786l126 -42l-113 -279l-96 30zM120 786l126 -42l-113 -279l-96 30z" />
    <glyph glyph-name="quotedblbase" unicode="&#x201e;" horiz-adv-x="512" 
d="M120 162l126 -42l-113 -279l-96 30zM318 162l126 -42l-113 -279l-96 30z" />
    <glyph glyph-name="dagger" unicode="&#x2020;" horiz-adv-x="598" 
d="M524 459h-149v-590h-152v590h-149v121h149v168h152v-168h149v-121z" />
    <glyph glyph-name="daggerdbl" unicode="&#x2021;" horiz-adv-x="598" 
d="M524 37h-149v-168h-152v168h-149v121h149v301h-149v121h149v168h152v-168h149v-121h-149v-301h149v-121z" />
    <glyph glyph-name="bullet" unicode="&#x2022;" horiz-adv-x="449" 
d="M86 331q0 31 10 57t28 44.5t43.5 29t57.5 10.5q63 0 100.5 -39t37.5 -102t-37.5 -101.5t-100.5 -38.5t-101 38.5t-38 101.5z" />
    <glyph glyph-name="ellipsis" unicode="&#x2026;" horiz-adv-x="942" 
d="M76 70q0 35 23.5 58.5t57.5 23.5t57.5 -23.5t23.5 -58.5t-23.5 -58.5t-57.5 -23.5t-57.5 23.5t-23.5 58.5zM390 70q0 35 23.5 58.5t57.5 23.5t57.5 -23.5t23.5 -58.5t-23.5 -58.5t-57.5 -23.5t-57.5 23.5t-23.5 58.5zM704 70q0 35 23.5 58.5t57.5 23.5t57.5 -23.5
t23.5 -58.5t-23.5 -58.5t-57.5 -23.5t-57.5 23.5t-23.5 58.5z" />
    <glyph glyph-name="perthousand" unicode="&#x2030;" horiz-adv-x="1195" 
d="M245 -15l-73 50l427 680l73 -50zM400 528q0 -40 -11.5 -73t-33 -56.5t-51.5 -36.5t-67 -13t-67 13t-51.5 36.5t-33 56.5t-11.5 73t11.5 73t33 56.5t51.5 36.5t67 13t67 -13t51.5 -36.5t33 -56.5t11.5 -73zM188 528q0 -42 13 -61t36 -19t36 19t13 61t-13 61t-36 19
t-36 -19t-13 -61zM768 171q0 -40 -11.5 -73t-33 -56.5t-51.5 -36.5t-67 -13t-67 13t-51.5 36.5t-33 56.5t-11.5 73t11.5 73t33 56.5t51.5 36.5t67 13t67 -13t51.5 -36.5t33 -56.5t11.5 -73zM556 171q0 -42 13 -61t36 -19t36 19t13 61t-13 61t-36 19t-36 -19t-13 -61z
M1121 171q0 -40 -11.5 -73t-33 -56.5t-51.5 -36.5t-67 -13t-67 13t-51.5 36.5t-33 56.5t-11.5 73t11.5 73t33 56.5t51.5 36.5t67 13t67 -13t51.5 -36.5t33 -56.5t11.5 -73zM909 171q0 -42 13 -61t36 -19t36 19t13 61t-13 61t-36 19t-36 -19t-13 -61z" />
    <glyph glyph-name="guilsinglleft" unicode="&#x2039;" horiz-adv-x="365" 
d="M46 340l216 158l57 -76l-155 -110l155 -110l-57 -76l-216 158v56z" />
    <glyph glyph-name="guilsinglright" unicode="&#x203a;" horiz-adv-x="365" 
d="M319 284l-216 -158l-57 76l155 110l-155 110l57 76l216 -158v-56z" />
    <glyph glyph-name="Euro" unicode="&#x20ac;" horiz-adv-x="740" 
d="M247 256q20 -67 66.5 -101t106.5 -34q52 0 91.5 24t67.5 70l132 -65q-44 -77 -120.5 -119.5t-176.5 -42.5q-65 0 -120 18.5t-98 53.5t-72 84.5t-42 111.5h-64v63h56q-1 8 -1 15.5v15.5v15t1 15h-56v63h64q12 62 41 111.5t72 84.5t98.5 54t120.5 19q100 0 176.5 -42.5
t120.5 -119.5l-132 -65q-28 46 -67.5 70t-91.5 24q-60 0 -107 -34.5t-67 -101.5h231l-18 -63h-224q-1 -8 -1 -15v-15v-15.5t1 -15.5h206q-5 -16 -9.5 -31.5t-9.5 -31.5h-175z" />
    <glyph glyph-name="trademark" unicode="&#x2122;" horiz-adv-x="704" 
d="M97 633h-88v67h264v-67h-88v-259h-88v259zM448 427l-62 117v-170h-88v326h95l85 -163l85 163h95v-326h-88v170l-62 -117h-60z" />
    </font>
</defs>
</svg>
